<svg width="117" height="116" viewBox="0 0 117 116" fill="none" xmlns="http://www.w3.org/2000/svg">
<g filter="url(#filter0_d)">
<rect x="16" y="16" width="85" height="84" rx="7" fill="#F5F5F5"/>
<rect x="17.5" y="17.5" width="82" height="81" rx="5.5" stroke="white" stroke-width="3"/>
</g>
<path d="M69.9784 49.4727C71.7738 49.4727 73.2292 48.0173 73.2292 46.2219C73.2292 44.4265 71.7738 42.9711 69.9784 42.9711C68.183 42.9711 66.7275 44.4265 66.7275 46.2219C66.7275 48.0173 68.183 49.4727 69.9784 49.4727Z" fill="#E5712A"/>
<path d="M84.4523 48.8505C83.3674 46.0879 81.3779 42.1019 78.0609 38.8006C74.7557 35.5108 70.8119 33.5782 68.0855 32.5361C65.0923 31.3921 61.691 32.1132 59.4205 34.373L51.442 42.3142C49.0769 44.6681 48.3952 48.2901 49.7456 51.3271C50.1644 52.269 50.6198 53.1903 51.1064 54.0805L33.5951 71.5917C33.214 71.9727 33 72.4895 33 73.0284V81.9682C33 83.0904 33.9096 84 35.0318 84H43.9716C45.0937 84 46.0033 83.0904 46.0033 81.9682V78.311L49.6605 78.3109C50.7827 78.3109 51.6923 77.4013 51.6923 76.2792V72.6221H55.3495C56.4716 72.6221 57.3812 71.7125 57.3812 70.5903C57.3812 69.4682 56.4716 68.5585 55.3495 68.5585H49.6605C48.5384 68.5585 47.6287 69.4682 47.6287 70.5903V74.2474L43.9716 74.2475C42.8494 74.2475 41.9398 75.1571 41.9398 76.2793V79.9365H37.0635V73.87L55.0808 55.8529C55.7427 55.1909 55.8668 54.1625 55.3813 53.3622C54.6772 52.2017 54.0303 50.9615 53.4589 49.6761C52.7885 48.1684 53.1301 46.3674 54.3088 45.1941L62.2872 37.253C63.4264 36.1194 65.1328 35.7579 66.635 36.3318C68.9941 37.2335 72.3941 38.8933 75.1945 41.6807C78.012 44.4849 79.7273 47.9352 80.6701 50.3357C81.2584 51.8339 80.9009 53.5361 79.7593 54.6722L71.6845 62.7093C70.5086 63.8795 68.7536 64.2216 67.213 63.5809C65.9424 63.0525 64.7119 62.4246 63.5558 61.715C62.5995 61.1281 61.3484 61.4275 60.7614 62.3839C60.1744 63.3403 60.4738 64.5914 61.4301 65.1784C62.7662 65.9984 64.1869 66.7233 65.6524 67.3328C68.7144 68.6066 72.2074 67.922 74.551 65.5894L82.6259 57.5525C84.9162 55.2729 85.6331 51.8572 84.4523 48.8505Z" fill="#E5712A"/>
<defs>
<filter id="filter0_d" x="0" y="0" width="117" height="116" filterUnits="userSpaceOnUse" color-interpolation-filters="sRGB">
<feFlood flood-opacity="0" result="BackgroundImageFix"/>
<feColorMatrix in="SourceAlpha" type="matrix" values="0 0 0 0 0 0 0 0 0 0 0 0 0 0 0 0 0 0 127 0"/>
<feOffset/>
<feGaussianBlur stdDeviation="8"/>
<feColorMatrix type="matrix" values="0 0 0 0 0 0 0 0 0 0 0 0 0 0 0 0 0 0 0.12 0"/>
<feBlend mode="normal" in2="BackgroundImageFix" result="effect1_dropShadow"/>
<feBlend mode="normal" in="SourceGraphic" in2="effect1_dropShadow" result="shape"/>
</filter>
</defs>
</svg>
