<svg width="117" height="116" viewBox="0 0 117 116" fill="none" xmlns="http://www.w3.org/2000/svg">
<g filter="url(#filter0_d)">
<rect x="16" y="16" width="85" height="84" rx="7" fill="#F5F5F5"/>
<rect x="17.5" y="17.5" width="82" height="81" rx="5.5" stroke="white" stroke-width="3"/>
</g>
<path d="M40.4172 63.6093C40.7642 63.842 41.1567 63.9532 41.5449 63.9532C42.2 63.9532 42.8432 63.6361 43.2349 63.0497C46.5171 58.1354 52.0038 55.2016 57.9118 55.2016C63.8024 55.2016 69.28 58.122 72.5646 63.0138C73.1909 63.9464 74.453 64.1938 75.3837 63.5663C76.3146 62.9389 76.5615 61.6742 75.9352 60.7416C73.3109 56.8334 69.5485 53.9496 65.2489 52.4069C67.8274 50.2965 69.4766 47.0872 69.4766 43.499C69.4766 37.1584 64.3283 32 58 32C51.6717 32 46.5234 37.1584 46.5234 43.499C46.5234 47.0615 48.1486 50.2506 50.6952 52.3615C46.3284 53.8985 42.5094 56.8172 39.8587 60.7859C39.2348 61.7201 39.4849 62.9842 40.4172 63.6093ZM58 36.0704C62.0881 36.0704 65.4141 39.4029 65.4141 43.499C65.4141 47.5951 62.0881 50.9276 58 50.9276C53.9119 50.9276 50.5859 47.5951 50.5859 43.499C50.5859 39.4029 53.9119 36.0704 58 36.0704ZM66.1004 68.0367L63.0722 70.2255C62.6217 70.5511 62.4331 71.1284 62.6052 71.6553L63.8247 75.1968C63.8762 75.3546 63.896 75.5086 63.8894 75.6556C63.8462 76.6067 62.6564 77.2574 61.7838 76.6267L58.7557 74.4373C58.5305 74.2745 58.2653 74.1931 58.0001 74.1931C57.7349 74.1931 57.4697 74.2745 57.2445 74.4373L54.2164 76.6267C53.3438 77.2574 52.1483 76.6067 52.1105 75.6556C52.1047 75.5086 52.125 75.3545 52.1765 75.1968L53.3948 71.6553C53.567 71.1284 53.3784 70.5511 52.9279 70.2255L49.8997 68.0367C48.8922 67.3085 49.4099 65.5812 50.6553 65.5812H54.3983C54.9553 65.5812 55.4488 65.3664 55.6209 64.8395L56.7775 61.2751C56.9699 60.686 57.485 60.3914 58.0001 60.3914C58.5152 60.3914 59.0302 60.686 59.2227 61.2751L60.3793 64.8395C60.5514 65.3664 61.0449 65.5812 61.6019 65.5812H65.3449C66.5902 65.5812 67.1079 67.3085 66.1004 68.0367ZM83.4676 75.16L80.4394 77.3488C79.9889 77.6744 79.8003 78.2517 79.9724 78.7786L81.1919 82.3201C81.2434 82.4779 81.2632 82.6319 81.2566 82.7789C81.2134 83.73 80.0236 84.3807 79.151 83.75L76.1229 81.5606C75.8976 81.3978 75.6325 81.3164 75.3673 81.3164C75.1021 81.3164 74.8369 81.3978 74.6117 81.5606L71.5836 83.75C70.7109 84.3807 69.5155 83.73 69.4777 82.7789C69.4719 82.6319 69.4922 82.4778 69.5437 82.3201L70.762 78.7786C70.9342 78.2517 70.7456 77.6744 70.295 77.3488L67.2669 75.16C66.2594 74.4318 66.7771 72.7045 68.0225 72.7045H71.7655C72.3224 72.7045 72.816 72.4897 72.9881 71.9628L74.1447 68.3984C74.3371 67.8093 74.8522 67.5147 75.3673 67.5147C75.8824 67.5147 76.3974 67.8093 76.5899 68.3984L77.7465 71.9628C77.9186 72.4897 78.4121 72.7045 78.9691 72.7045H82.7121C83.9573 72.7045 84.4751 74.4318 83.4676 75.16ZM48.7332 75.16L45.705 77.3488C45.2545 77.6744 45.0659 78.2517 45.2381 78.7786L46.4575 82.3201C46.509 82.4779 46.5288 82.6319 46.5222 82.7789C46.4791 83.73 45.2892 84.3807 44.4166 83.75L41.3884 81.5606C41.1632 81.3978 40.898 81.3164 40.6328 81.3164C40.3676 81.3164 40.1025 81.3978 39.8772 81.5606L36.8491 83.75C35.9765 84.3807 34.781 83.73 34.7432 82.7789C34.7374 82.6319 34.7577 82.4778 34.8092 82.3201L36.0276 78.7786C36.1997 78.2517 36.0111 77.6744 35.5606 77.3488L32.5324 75.16C31.5249 74.4318 32.0427 72.7045 33.288 72.7045H37.031C37.588 72.7045 38.0816 72.4897 38.2536 71.9628L39.4102 68.3984C39.6027 67.8093 40.1177 67.5147 40.6328 67.5147C41.1479 67.5147 41.663 67.8093 41.8554 68.3984L43.012 71.9628C43.1842 72.4897 43.6777 72.7045 44.2346 72.7045H47.9776C49.223 72.7045 49.7407 74.4318 48.7332 75.16Z" fill="#E5712A"/>
<defs>
<filter id="filter0_d" x="0" y="0" width="117" height="116" filterUnits="userSpaceOnUse" color-interpolation-filters="sRGB">
<feFlood flood-opacity="0" result="BackgroundImageFix"/>
<feColorMatrix in="SourceAlpha" type="matrix" values="0 0 0 0 0 0 0 0 0 0 0 0 0 0 0 0 0 0 127 0"/>
<feOffset/>
<feGaussianBlur stdDeviation="8"/>
<feColorMatrix type="matrix" values="0 0 0 0 0 0 0 0 0 0 0 0 0 0 0 0 0 0 0.12 0"/>
<feBlend mode="normal" in2="BackgroundImageFix" result="effect1_dropShadow"/>
<feBlend mode="normal" in="SourceGraphic" in2="effect1_dropShadow" result="shape"/>
</filter>
</defs>
</svg>
