<svg width="117" height="116" viewBox="0 0 117 116" fill="none" xmlns="http://www.w3.org/2000/svg">
<g filter="url(#filter0_d)">
<rect x="16" y="16" width="85" height="84" rx="7" fill="#F5F5F5"/>
<rect x="17.5" y="17.5" width="82" height="81" rx="5.5" stroke="white" stroke-width="3"/>
</g>
<path d="M83.4056 58.4147L81.998 51.254C81.6126 49.2441 80.9477 47.7096 79.965 46.5627C78.6982 45.0842 76.9212 44.3027 74.8258 44.3027H66.5914V34.458C66.5914 33.1005 65.4909 32 64.1333 32H30.458C29.1005 32 28 33.1005 28 34.458V69.2517C28 74.6084 32.3066 78.9753 37.6389 79.079C38.6522 81.9425 41.3857 84 44.5918 84C47.7963 84 50.5284 81.9448 51.5432 79.0839H66.7683C67.783 81.9448 70.5153 84 73.7197 84C76.9241 84 79.6562 81.9448 80.6711 79.0839H88.468C89.8256 79.0839 90.926 77.9834 90.926 76.6259V67.7769C90.926 63.2001 87.7018 59.3621 83.4056 58.4147ZM66.5914 49.2186H74.8258C75.576 49.2186 76.6033 49.2186 77.1709 52.1848C77.1716 52.1888 77.1725 52.1929 77.1732 52.197L78.3756 58.3134H66.5914V49.2186ZM44.5918 79.0839C43.2365 79.0839 42.1338 77.9812 42.1338 76.6259C42.1338 75.2705 43.2365 74.1678 44.5918 74.1678C45.9472 74.1678 47.0499 75.2705 47.0499 76.6259C47.0499 77.9812 45.9472 79.0839 44.5918 79.0839ZM73.7197 79.0839C72.3643 79.0839 71.2616 77.9812 71.2616 76.6259C71.2616 75.2705 72.3643 74.1678 73.7197 74.1678C75.0751 74.1678 76.1777 75.2705 76.1777 76.6259C76.1777 77.9812 75.0751 79.0839 73.7197 79.0839ZM86.0099 74.1678H80.6711C79.6564 71.3069 76.9241 69.2517 73.7197 69.2517C70.5153 69.2517 67.7831 71.3069 66.7683 74.1678H51.5432C50.5285 71.3069 47.7963 69.2517 44.5918 69.2517C41.3892 69.2517 38.6582 71.3046 37.6422 74.163C35.0192 74.0627 32.9161 71.8988 32.9161 69.2517V36.9161H61.6753V58.3134H40.2902C38.9327 58.3134 37.8322 59.4139 37.8322 60.7715C37.8322 62.129 38.9327 63.2295 40.2902 63.2295H81.2167C81.4446 63.2295 81.6642 63.1961 81.8736 63.1381C84.1981 63.404 86.0099 65.3824 86.0099 67.7769V74.1678Z" fill="#E5712A"/>
<defs>
<filter id="filter0_d" x="0" y="0" width="117" height="116" filterUnits="userSpaceOnUse" color-interpolation-filters="sRGB">
<feFlood flood-opacity="0" result="BackgroundImageFix"/>
<feColorMatrix in="SourceAlpha" type="matrix" values="0 0 0 0 0 0 0 0 0 0 0 0 0 0 0 0 0 0 127 0"/>
<feOffset/>
<feGaussianBlur stdDeviation="8"/>
<feColorMatrix type="matrix" values="0 0 0 0 0 0 0 0 0 0 0 0 0 0 0 0 0 0 0.12 0"/>
<feBlend mode="normal" in2="BackgroundImageFix" result="effect1_dropShadow"/>
<feBlend mode="normal" in="SourceGraphic" in2="effect1_dropShadow" result="shape"/>
</filter>
</defs>
</svg>
