<svg width="117" height="116" viewBox="0 0 117 116" fill="none" xmlns="http://www.w3.org/2000/svg">
<g filter="url(#filter0_d)">
<rect x="16" y="16" width="85" height="84" rx="7" fill="#F5F5F5"/>
<rect x="17.5" y="17.5" width="82" height="81" rx="5.5" stroke="white" stroke-width="3"/>
</g>
<path d="M82.9688 74.875C82.9688 79.3553 79.324 83 74.8438 83H43.1562C38.676 83 35.0312 79.3553 35.0312 74.875V52.3281C35.0312 51.2062 35.9406 50.2969 37.0625 50.2969C38.1844 50.2969 39.0938 51.2062 39.0938 52.3281V74.875C39.0938 77.1149 40.9163 78.9375 43.1562 78.9375H74.8438C77.0837 78.9375 78.9062 77.1149 78.9062 74.875C78.9062 73.7531 79.8156 72.8438 80.9375 72.8438C82.0594 72.8438 82.9688 73.7531 82.9688 74.875ZM85 37.0938V43.1875C85 44.3094 84.0907 45.2188 82.9688 45.2188V64.6172C82.9688 65.7391 82.0594 66.6484 80.9375 66.6484C79.8156 66.6484 78.9062 65.7391 78.9062 64.6172V45.2188H35.0312C33.9093 45.2188 33 44.3094 33 43.1875V37.0938C33 33.7335 35.7335 31 39.0938 31H78.9062C82.2665 31 85 33.7335 85 37.0938ZM37.0625 41.1562H80.9375V37.0938C80.9375 35.9738 80.0262 35.0625 78.9062 35.0625H39.0938C37.9738 35.0625 37.0625 35.9738 37.0625 37.0938V41.1562ZM63.4688 49.2812H54.3281C53.2062 49.2812 52.2969 50.1906 52.2969 51.3125C52.2969 52.4344 53.2062 53.3438 54.3281 53.3438H63.4688C64.5907 53.3438 65.5 52.4344 65.5 51.3125C65.5 50.1906 64.5907 49.2812 63.4688 49.2812ZM74.8438 72.7422V65.4297C74.8438 64.3077 73.9344 63.3984 72.8125 63.3984C71.6906 63.3984 70.7812 64.3077 70.7812 65.4297V72.7422C70.7812 73.8641 71.6906 74.7734 72.8125 74.7734C73.9344 74.7734 74.8438 73.8641 74.8438 72.7422ZM62.5547 65.4297V72.7422C62.5547 73.8641 63.464 74.7734 64.5859 74.7734C65.7079 74.7734 66.6172 73.8641 66.6172 72.7422V65.4297C66.6172 64.3077 65.7079 63.3984 64.5859 63.3984C63.464 63.3984 62.5547 64.3077 62.5547 65.4297Z" fill="#E5712A"/>
<defs>
<filter id="filter0_d" x="0" y="0" width="117" height="116" filterUnits="userSpaceOnUse" color-interpolation-filters="sRGB">
<feFlood flood-opacity="0" result="BackgroundImageFix"/>
<feColorMatrix in="SourceAlpha" type="matrix" values="0 0 0 0 0 0 0 0 0 0 0 0 0 0 0 0 0 0 127 0"/>
<feOffset/>
<feGaussianBlur stdDeviation="8"/>
<feColorMatrix type="matrix" values="0 0 0 0 0 0 0 0 0 0 0 0 0 0 0 0 0 0 0.12 0"/>
<feBlend mode="normal" in2="BackgroundImageFix" result="effect1_dropShadow"/>
<feBlend mode="normal" in="SourceGraphic" in2="effect1_dropShadow" result="shape"/>
</filter>
</defs>
</svg>
