<svg width="117" height="116" viewBox="0 0 117 116" fill="none" xmlns="http://www.w3.org/2000/svg">
<g filter="url(#filter0_d)">
<rect x="16" y="16" width="85" height="84" rx="7" fill="#F5F5F5"/>
<rect x="17.5" y="17.5" width="82" height="81" rx="5.5" stroke="white" stroke-width="3"/>
</g>
<path d="M82.0078 55.2051C83.1082 55.2051 84 54.3133 84 53.2129V47.5352C84 46.4348 83.1082 45.543 82.0078 45.543C80.9074 45.543 80.0156 46.4348 80.0156 47.5352C80.0156 48.0846 79.5689 48.5312 79.0195 48.5312H68.4609C67.9115 48.5312 67.4648 48.0846 67.4648 47.5352C67.4648 46.4348 66.573 45.543 65.4727 45.543C64.3723 45.543 63.4805 46.4348 63.4805 47.5352C63.4805 48.0846 63.0338 48.5312 62.4844 48.5312H51.9258V45.8418C51.9258 45.3473 52.3277 44.9453 52.8223 44.9453H52.9219C54.0222 44.9453 54.9141 44.0535 54.9141 42.9531C54.9141 41.8528 54.0222 40.9609 52.9219 40.9609C52.3725 40.9609 51.9258 40.5143 51.9258 39.9648V35.9805C51.9258 35.4311 52.3725 34.9844 52.9219 34.9844C54.0222 34.9844 54.9141 34.0926 54.9141 32.9922C54.9141 31.8918 54.0222 31 52.9219 31H34.9922C33.8918 31 33 31.8918 33 32.9922C33 34.0926 33.8918 34.9844 34.9922 34.9844C35.5965 34.9844 36.0879 35.4758 36.0879 36.0801V39.9648C36.0879 40.5143 35.6412 40.9609 35.0918 40.9609H34.9922C33.8918 40.9609 33 41.8528 33 42.9531C33 44.0535 33.8918 44.9453 34.9922 44.9453C35.5416 44.9453 35.9883 45.392 35.9883 45.9414V66.959C35.9883 67.5084 35.5416 67.9551 34.9922 67.9551C33.8918 67.9551 33 68.8469 33 69.9473C33 71.0476 33.8918 71.9395 34.9922 71.9395C35.5416 71.9395 35.9883 72.3861 35.9883 72.9355V77.0195C35.9883 77.5689 35.5416 78.0156 34.9922 78.0156C33.8918 78.0156 33 78.9074 33 80.0078C33 81.1082 33.8918 82 34.9922 82H52.9219C54.0222 82 54.9141 81.1082 54.9141 80.0078C54.9141 78.9074 54.0222 78.0156 52.9219 78.0156C52.3725 78.0156 51.9258 77.5689 51.9258 77.0195V72.9355C51.9258 72.3861 52.3725 71.9395 52.9219 71.9395C54.0222 71.9395 54.9141 71.0476 54.9141 69.9473C54.9141 68.8469 54.0222 67.9551 52.9219 67.9551C52.3725 67.9551 51.9258 67.5084 51.9258 66.959V64.4688H62.4844C63.0338 64.4688 63.4805 64.9154 63.4805 65.4648C63.4805 66.5652 64.3723 67.457 65.4727 67.457C66.573 67.457 67.4648 66.5652 67.4648 65.4648C67.4648 64.9154 67.9115 64.4688 68.4609 64.4688H79.0195C79.5689 64.4688 80.0156 64.9154 80.0156 65.4648C80.0156 66.5652 80.9074 67.457 82.0078 67.457C83.1082 67.457 84 66.5652 84 65.4648C84 62.7186 81.7658 60.4844 79.0195 60.4844H68.4609C68.1197 60.4844 67.7866 60.5194 67.4648 60.5852V52.4148C67.7866 52.4806 68.1197 52.5156 68.4609 52.5156H79.0195C79.3608 52.5156 79.6938 52.481 80.0156 52.4156V53.2129C80.0156 54.3133 80.9074 55.2051 82.0078 55.2051ZM48.0414 34.9844C47.976 35.3062 47.9414 35.6392 47.9414 35.9805V39.9648C47.9414 40.3061 47.976 40.6392 48.0418 40.9609H39.9715C40.0369 40.6388 40.0723 40.3061 40.0723 39.9648V36.0801C40.0723 35.7038 40.0314 35.3373 39.9532 34.9844H48.0414ZM39.8727 78.0156C39.938 77.6938 39.9727 77.3608 39.9727 77.0195V72.9355C39.9727 72.5943 39.9376 72.2612 39.8719 71.9395H48.0418C47.9764 72.2612 47.9414 72.5943 47.9414 72.9355V77.0195C47.9414 77.3608 47.9756 77.6938 48.0414 78.0156H39.8727ZM62.4844 60.4844H51.9258C49.7289 60.4844 47.9414 62.2719 47.9414 64.4688V66.959C47.9414 67.3002 47.9764 67.6333 48.0422 67.9551H39.8719C39.9376 67.6333 39.9727 67.3002 39.9727 66.959V45.9414C39.9727 45.6002 39.938 45.2671 39.8727 44.9453H48.0251C47.971 45.236 47.9414 45.5356 47.9414 45.8418V48.5312C47.9414 50.7281 49.7289 52.5156 51.9258 52.5156H62.4844C62.8256 52.5156 63.1587 52.4806 63.4805 52.4148V60.5848C63.1587 60.5194 62.8256 60.4844 62.4844 60.4844Z" fill="#E5712A"/>
<defs>
<filter id="filter0_d" x="0" y="0" width="117" height="116" filterUnits="userSpaceOnUse" color-interpolation-filters="sRGB">
<feFlood flood-opacity="0" result="BackgroundImageFix"/>
<feColorMatrix in="SourceAlpha" type="matrix" values="0 0 0 0 0 0 0 0 0 0 0 0 0 0 0 0 0 0 127 0"/>
<feOffset/>
<feGaussianBlur stdDeviation="8"/>
<feColorMatrix type="matrix" values="0 0 0 0 0 0 0 0 0 0 0 0 0 0 0 0 0 0 0.12 0"/>
<feBlend mode="normal" in2="BackgroundImageFix" result="effect1_dropShadow"/>
<feBlend mode="normal" in="SourceGraphic" in2="effect1_dropShadow" result="shape"/>
</filter>
</defs>
</svg>
