<svg width="66" height="12" viewBox="0 0 66 12" fill="none" xmlns="http://www.w3.org/2000/svg">
<path fill-rule="evenodd" clip-rule="evenodd" d="M59.2608 6.13543C59.1066 6.08449 57.8705 4.90122 57.6722 4.71996L53.1361 0.570622C53.0308 0.471992 53.0211 0.424377 52.8816 0.393255C52.8914 1.00526 52.8848 1.62117 52.8848 2.23361C52.8848 3.25442 52.7551 2.90944 53.4392 3.55329C54.0909 4.16669 54.7414 4.75556 55.3695 5.33387C55.7566 5.69026 59.1686 8.86346 59.2608 8.89586L63.2167 5.29751C63.3154 5.20754 63.38 5.10879 63.5127 5.07144L63.5173 11.9949L65.6103 12.0001L65.625 0.37508C65.4858 0.398699 65.3325 0.589684 65.211 0.701447L60.0768 5.41184C59.8995 5.57488 59.4399 6.03826 59.2608 6.13543Z" fill="white"/>
<path fill-rule="evenodd" clip-rule="evenodd" d="M20.252 6.00521C20.2525 9.39461 23.1761 12.0055 26.398 12C26.9158 11.9991 28.3917 11.8613 28.76 11.5378L26.9695 10.3487C26.8118 10.2483 26.7022 10.1635 26.5161 10.0558C26.2381 9.89496 25.7856 10.1057 24.7194 9.64789C21.6623 8.33515 21.3495 3.85892 24.762 2.34453C26.0066 1.79221 27.7168 1.93961 28.883 2.80708C28.9755 2.8759 29.2354 3.11376 29.3188 3.15139C29.4169 3.10754 30.6789 1.89296 30.752 1.7949C30.6187 1.44342 29.3438 0.711909 28.929 0.529973C28.192 0.206653 27.3237 -0.00166445 26.398 1.00201e-05C23.2776 0.00569409 20.2514 2.52106 20.252 6.00521Z" fill="white"/>
<path fill-rule="evenodd" clip-rule="evenodd" d="M36.653 2.02589C36.7406 3.16476 36.5599 11.7623 36.6905 11.9533C36.7588 12.0297 37.5505 11.9891 37.6586 11.9891C37.9373 11.9891 38.4291 12.0194 38.682 11.979L38.6964 2.03C39.2607 1.96536 40.1372 2.02035 40.7298 2.02037C40.8637 2.02037 42.6308 2.06561 42.7067 1.98181C42.772 1.90972 42.7511 0.209519 42.7317 0.01179L32.6497 0C32.6033 0.426418 32.6422 1.104 32.6415 1.54805C32.6406 2.11156 32.42 2.01971 33.6726 2.01979C34.6174 2.01987 35.7287 1.96315 36.653 2.02589Z" fill="white"/>
<path fill-rule="evenodd" clip-rule="evenodd" d="M54.7319 7.0213L52.8712 7.01245C52.685 7.01242 52.6592 6.97327 52.6393 7.14902C52.5918 7.56705 52.6686 7.5385 52.4329 8.0897C51.9899 9.12587 50.9243 9.89311 49.7459 9.98506C48.0263 10.1192 46.4687 8.88723 46.3577 7.29142C46.2922 6.35038 46.3522 5.16593 46.3522 4.19849L46.3529 0.341494C46.3586 -0.0838862 46.3745 0.00760884 45.9488 0.00958772C45.4428 0.0119647 44.92 -0.00569939 44.4174 0.00530957C44.2382 0.00923321 44.2521 0.0137944 44.25 0.198717L44.2537 6.00501C44.2537 7.15667 44.2171 7.81212 44.5783 8.75613C45.0899 10.093 46.3151 11.2649 47.7204 11.7229C50.1856 12.5262 52.8603 11.5249 54.0838 9.47143C54.4021 8.93717 54.8452 7.84658 54.7319 7.0213Z" fill="white"/>
<path fill-rule="evenodd" clip-rule="evenodd" d="M7.87305 11.9758C8.18079 11.9991 9.9293 12.0243 10.0922 11.9545C10.2176 11.8776 13.1169 6.26128 13.44 5.65698L13.7981 4.97353C13.8583 4.85361 13.8617 4.8074 13.9589 4.75175C14.0625 4.85529 14.3471 5.44545 14.4171 5.57859L15.7434 8.10269L17.998 8.11048C17.9896 7.98142 16.2017 4.60728 15.9956 4.22882C15.634 3.56492 15.3275 2.92573 14.9833 2.29262C14.8234 1.99852 14.0724 0.488121 13.9589 0.37508C13.8468 0.431562 13.25 1.66327 13.1784 1.80142L9.37838 9.05588C9.13872 9.51471 8.84806 10.0419 8.61813 10.5042C8.47074 10.8007 7.90469 11.7789 7.87305 11.9758Z" fill="white"/>
<path fill-rule="evenodd" clip-rule="evenodd" d="M0 11.9863L2.05284 12L2.07046 8.03408C2.91463 7.92662 7.98138 8.13692 8.21345 7.99112C8.27973 7.92184 8.23788 6.06198 8.22645 6.00857L0.00762274 6.00004L0 11.9863Z" fill="white"/>
<path fill-rule="evenodd" clip-rule="evenodd" d="M8.22218 2.22405C8.24347 2.10684 8.27943 0.129818 8.20611 0.0536955C8.16341 0.0293195 0.466804 -0.0465683 0 0.0413442L1.27604 1.41437C1.51502 1.67235 1.70256 1.87097 1.9307 2.11261C2.09944 2.29133 2.14492 2.23542 2.4425 2.23465L6.9433 2.23471C7.2943 2.23471 7.90202 2.27539 8.22218 2.22405Z" fill="white"/>
<path fill-rule="evenodd" clip-rule="evenodd" d="M59.2608 6.13543C59.1066 6.08449 57.8705 4.90122 57.6722 4.71996L53.1361 0.570622C53.0308 0.471992 53.0211 0.424377 52.8816 0.393255C52.8914 1.00526 52.8848 1.62117 52.8848 2.23361C52.8848 3.25442 52.7551 2.90944 53.4392 3.55329C54.0909 4.16669 54.7414 4.75556 55.3695 5.33387C55.7566 5.69026 59.1686 8.86346 59.2608 8.89586L63.2167 5.29751C63.3154 5.20754 63.38 5.10879 63.5127 5.07144L63.5173 11.9949L65.6103 12.0001L65.625 0.37508C65.4858 0.398699 65.3325 0.589684 65.211 0.701447L60.0768 5.41184C59.8995 5.57488 59.4399 6.03826 59.2608 6.13543Z" fill="white"/>
<path fill-rule="evenodd" clip-rule="evenodd" d="M20.252 6.00521C20.2525 9.39461 23.1761 12.0055 26.398 12C26.9158 11.9991 28.3917 11.8613 28.76 11.5378L26.9695 10.3487C26.8118 10.2483 26.7022 10.1635 26.5161 10.0558C26.2381 9.89496 25.7856 10.1057 24.7194 9.64789C21.6623 8.33515 21.3495 3.85892 24.762 2.34453C26.0066 1.79221 27.7168 1.93961 28.883 2.80708C28.9755 2.8759 29.2354 3.11376 29.3188 3.15139C29.4169 3.10754 30.6789 1.89296 30.752 1.7949C30.6187 1.44342 29.3438 0.711909 28.929 0.529973C28.192 0.206653 27.3237 -0.00166445 26.398 1.00201e-05C23.2776 0.00569409 20.2514 2.52106 20.252 6.00521Z" fill="white"/>
<path fill-rule="evenodd" clip-rule="evenodd" d="M36.653 2.02589C36.7406 3.16476 36.5599 11.7623 36.6905 11.9533C36.7588 12.0297 37.5505 11.9891 37.6586 11.9891C37.9373 11.9891 38.4291 12.0194 38.682 11.979L38.6964 2.03C39.2607 1.96536 40.1372 2.02035 40.7298 2.02037C40.8637 2.02037 42.6308 2.06561 42.7067 1.98181C42.772 1.90972 42.7511 0.209519 42.7317 0.01179L32.6497 0C32.6033 0.426418 32.6422 1.104 32.6415 1.54805C32.6406 2.11156 32.42 2.01971 33.6726 2.01979C34.6174 2.01987 35.7287 1.96315 36.653 2.02589Z" fill="white"/>
<path fill-rule="evenodd" clip-rule="evenodd" d="M54.7319 7.0213L52.8712 7.01245C52.685 7.01242 52.6592 6.97327 52.6393 7.14902C52.5918 7.56705 52.6686 7.5385 52.4329 8.0897C51.9899 9.12587 50.9243 9.89311 49.7459 9.98506C48.0263 10.1192 46.4687 8.88723 46.3577 7.29142C46.2922 6.35038 46.3522 5.16593 46.3522 4.19849L46.3529 0.341494C46.3586 -0.0838862 46.3745 0.00760884 45.9488 0.00958772C45.4428 0.0119647 44.92 -0.00569939 44.4174 0.00530957C44.2382 0.00923321 44.2521 0.0137944 44.25 0.198717L44.2537 6.00501C44.2537 7.15667 44.2171 7.81212 44.5783 8.75613C45.0899 10.093 46.3151 11.2649 47.7204 11.7229C50.1856 12.5262 52.8603 11.5249 54.0838 9.47143C54.4021 8.93717 54.8452 7.84658 54.7319 7.0213Z" fill="white"/>
<path fill-rule="evenodd" clip-rule="evenodd" d="M7.87305 11.9758C8.18079 11.9991 9.9293 12.0243 10.0922 11.9545C10.2176 11.8776 13.1169 6.26128 13.44 5.65698L13.7981 4.97353C13.8583 4.85361 13.8617 4.8074 13.9589 4.75175C14.0625 4.85529 14.3471 5.44545 14.4171 5.57859L15.7434 8.10269L17.998 8.11048C17.9896 7.98142 16.2017 4.60728 15.9956 4.22882C15.634 3.56492 15.3275 2.92573 14.9833 2.29262C14.8234 1.99852 14.0724 0.488121 13.9589 0.37508C13.8468 0.431562 13.25 1.66327 13.1784 1.80142L9.37838 9.05588C9.13872 9.51471 8.84806 10.0419 8.61813 10.5042C8.47074 10.8007 7.90469 11.7789 7.87305 11.9758Z" fill="white"/>
<path fill-rule="evenodd" clip-rule="evenodd" d="M8.22218 2.22405C8.24347 2.10684 8.27943 0.129818 8.20611 0.0536955C8.16341 0.0293195 0.466804 -0.0465683 0 0.0413442L1.27604 1.41437C1.51502 1.67235 1.70256 1.87097 1.9307 2.11261C2.09944 2.29133 2.14492 2.23542 2.4425 2.23465L6.9433 2.23471C7.2943 2.23471 7.90202 2.27539 8.22218 2.22405Z" fill="white"/>
<path fill-rule="evenodd" clip-rule="evenodd" d="M20.251 11.9777C20.2356 11.8124 19.2968 9.88797 19.2015 9.7598L16.876 9.75008C16.8714 9.96976 17.6405 11.4515 17.773 11.7436C17.9343 12.0992 18.0309 11.9813 18.8887 11.9815C19.3332 11.9816 19.8106 12.0002 20.251 11.9777Z" fill="white"/>
</svg>
