<svg width="80" height="77" viewBox="0 0 80 77" fill="none" xmlns="http://www.w3.org/2000/svg">
<path d="M34.9616 55.2949L26.889 46.5545C26.7271 46.3724 26.5854 46.3067 26.4641 46.3573C26.3427 46.4078 26.282 46.5646 26.282 46.8277V55.0521C26.282 55.3152 26.1909 55.5377 26.0089 55.7198C25.8267 55.9019 25.6042 55.9929 25.3412 55.9929H22.9436C22.6806 55.9929 22.4631 55.9019 22.2911 55.7198C22.1192 55.5377 22.0332 55.3152 22.0332 55.0521V34.7186C22.0332 34.4556 22.1192 34.2331 22.2911 34.051C22.4631 33.8689 22.6806 33.7778 22.9436 33.7778H25.3412C25.6042 33.7778 25.8268 33.8689 26.0089 34.051C26.191 34.2331 26.282 34.4556 26.282 34.7186V44.1266C26.282 44.3897 26.3376 44.5414 26.4489 44.5819C26.5602 44.6224 26.6968 44.5414 26.8586 44.3391L34.5367 34.5365C34.6986 34.3342 34.9212 34.1622 35.2045 34.0206C35.4877 33.879 35.7608 33.8082 36.0238 33.8082H39.3925C39.6556 33.8082 39.8224 33.879 39.8933 34.0206C39.9641 34.1622 39.9185 34.3342 39.7567 34.5365L31.775 44.5515C31.6132 44.7539 31.5373 44.9916 31.5474 45.2647C31.5576 45.5378 31.6537 45.7654 31.8358 45.9475L40.5761 55.3253C40.738 55.5074 40.7936 55.6641 40.743 55.7957C40.6924 55.9272 40.5357 55.9929 40.2726 55.9929H36.5094C36.2464 55.9929 35.9632 55.9272 35.6596 55.7957C35.3562 55.6641 35.1235 55.4972 34.9616 55.2949L34.9616 55.2949ZM39.2463 55.1735L49.7772 34.142C49.8986 33.8993 50.1009 33.7778 50.3841 33.7778C50.6674 33.7778 50.8698 33.8993 50.9911 34.142L61.522 55.1735C61.6434 55.396 61.6586 55.5882 61.5675 55.7501C61.4765 55.912 61.2995 55.9929 61.0365 55.9929H58.2748C58.0117 55.9929 57.7487 55.912 57.4857 55.7501C57.2226 55.5882 57.0406 55.3859 56.9394 55.1432L56.029 53.3223C55.9076 53.0997 55.7204 52.9075 55.4675 52.7457C55.2146 52.5838 54.9567 52.5028 54.6936 52.5028H46.0747C45.8116 52.5028 45.5486 52.5838 45.2856 52.7457C45.0226 52.9075 44.8405 53.1098 44.7393 53.3526L43.8592 55.1432C43.7378 55.3859 43.5507 55.5882 43.2978 55.7501C43.0449 55.912 42.7869 55.9929 42.5239 55.9929H39.7622C39.4991 55.9929 39.3222 55.912 39.2311 55.7501C39.1401 55.5882 39.1451 55.396 39.2463 55.1735ZM48.1384 48.8003H52.6299C52.893 48.8003 53.07 48.7143 53.1611 48.5424C53.252 48.3704 53.247 48.1731 53.1458 47.9506L50.7787 42.9431C50.6775 42.7003 50.546 42.5789 50.3841 42.5789C50.2223 42.5789 50.0908 42.7003 49.9896 42.9431L47.592 47.9506C47.4909 48.1933 47.4909 48.3957 47.592 48.5575C47.6933 48.7194 47.8754 48.8003 48.1383 48.8003H48.1384ZM68.5077 52.0476H78.6137C78.8768 52.0476 79.0993 52.1387 79.2814 52.3207C79.4635 52.5028 79.5545 52.7254 79.5545 52.9884V55.0521C79.5545 55.3152 79.4635 55.5377 79.2814 55.7198C79.0993 55.9019 78.8768 55.9929 78.6137 55.9929H60.7081C60.4451 55.9929 60.2731 55.8614 60.1922 55.5984C60.1112 55.3354 60.1517 55.0926 60.3136 54.87L71.9977 38.4819C72.1596 38.2593 72.2001 38.0772 72.1191 37.9356C72.0382 37.794 71.8663 37.7231 71.6032 37.7231H61.9827C61.74 37.7231 61.5275 37.6321 61.3455 37.45C61.1634 37.2679 61.0723 37.0454 61.0723 36.7823V34.749C61.0723 34.486 61.1634 34.2634 61.3455 34.0813C61.5275 33.8993 61.74 33.8082 61.9827 33.8082H79.3724C79.6355 33.8082 79.8074 33.9397 79.8883 34.2027C79.9693 34.4658 79.9288 34.7085 79.767 34.9311L68.1131 51.2889C67.9715 51.5114 67.9412 51.6936 68.0221 51.8352C68.103 51.9768 68.2649 52.0476 68.5077 52.0476L68.5077 52.0476Z" fill="#F58634"/>
<path d="M0.234303 64.1567C0.141012 64.1567 0.109863 64.1878 0.109863 64.2811V68.4479C0.109863 68.5412 0.141005 68.5723 0.234303 68.5723H0.439476C0.532767 68.5723 0.557672 68.5412 0.557672 68.4479V64.5796H2.88981V68.4479C2.88981 68.5287 2.92712 68.5723 3.008 68.5723H3.21942C3.3003 68.5723 3.33762 68.5287 3.33762 68.4479V64.2811C3.33762 64.2003 3.3003 64.1567 3.21942 64.1567H0.234296H0.234303ZM4.61056 67.0984C4.61056 68.0747 5.21998 68.6593 6.32078 68.6593C7.41533 68.6593 8.02483 68.0747 8.02483 67.0984V65.6307C8.02483 64.6542 7.41534 64.0696 6.32078 64.0696C5.21998 64.0696 4.61056 64.6542 4.61056 65.6307V67.0984ZM7.57702 67.0984C7.57702 67.826 7.13552 68.2427 6.32078 68.2427C5.50611 68.2427 5.0583 67.826 5.0583 67.0984V65.6307C5.0583 64.903 5.50611 64.4863 6.32078 64.4863C7.13552 64.4863 7.57702 64.903 7.57702 65.6307V67.0984ZM9.85121 64.1567C9.7704 64.1567 9.73309 64.2003 9.73309 64.2811V65.6866C9.73309 66.5076 9.65845 67.1108 9.57758 67.4342C9.53409 67.6021 9.47187 67.739 9.39106 67.8571C9.30394 67.9753 9.2293 68.0499 9.1734 68.0872C9.11742 68.1307 9.0303 68.1805 8.91834 68.2364C8.83753 68.28 8.81888 68.336 8.85619 68.4044L8.94948 68.5847C8.98056 68.6594 9.03654 68.678 9.11117 68.6407C9.2542 68.5723 9.37239 68.5101 9.4532 68.4541C9.53408 68.3982 9.62737 68.3049 9.73308 68.168C9.83879 68.0313 9.91967 67.8633 9.97565 67.6705C10.0876 67.2849 10.1747 66.607 10.1747 65.6804V64.5796H11.9658V68.4479C11.9658 68.5412 11.9907 68.5723 12.0839 68.5723H12.2891C12.3824 68.5723 12.4135 68.5412 12.4135 68.4479V64.2811C12.4135 64.1878 12.3824 64.1567 12.2891 64.1567H9.8512H9.85121ZM16.7028 64.1567C16.6095 64.1567 16.5783 64.1878 16.5783 64.2811V66.122H14.2089V64.2811C14.2089 64.1878 14.184 64.1567 14.0907 64.1567H13.8855C13.7922 64.1567 13.7611 64.1878 13.7611 64.2811V68.4479C13.7611 68.5412 13.7922 68.5723 13.8855 68.5723H14.0907C14.184 68.5723 14.2089 68.5412 14.2089 68.4479V66.5449H16.5783V68.4479C16.5783 68.5412 16.6095 68.5723 16.7028 68.5723H16.9079C16.9888 68.5723 17.0261 68.5287 17.0261 68.4479V64.2811C17.0261 64.2003 16.9888 64.1567 16.9079 64.1567H16.7028ZM20.2145 68.5723C21.0852 68.5723 21.6201 68.0561 21.6201 67.1916C21.6201 66.3272 21.0852 65.8173 20.2145 65.8173H18.8774V64.2811C18.8774 64.1878 18.8525 64.1567 18.7592 64.1567H18.5541C18.4608 64.1567 18.4296 64.1878 18.4296 64.2811V68.4479C18.4296 68.5412 18.4608 68.5723 18.5541 68.5723H20.2145ZM22.3726 68.4479C22.3726 68.5412 22.4036 68.5723 22.4969 68.5723H22.7022C22.7955 68.5723 22.8266 68.5412 22.8266 68.4479V64.2811C22.8266 64.1878 22.7955 64.1567 22.7022 64.1567H22.4969C22.4037 64.1567 22.3726 64.1878 22.3726 64.2811V68.4479ZM20.1772 66.2339C20.7805 66.2339 21.1537 66.5946 21.1537 67.1916C21.1537 67.7887 20.7805 68.1494 20.1772 68.1494H18.8774V66.2339H20.1772ZM26.9417 63.1306C26.9541 63.087 26.9355 63.0497 26.8857 63.0248L26.7053 62.9627C26.6494 62.9502 26.6183 62.9688 26.5996 63.0124C26.4939 63.3296 26.27 63.4913 25.9217 63.4913C25.5735 63.4913 25.3496 63.3296 25.2501 63.0124C25.2314 62.9688 25.1879 62.9502 25.1257 62.9688L24.964 63.0248C24.908 63.0435 24.8893 63.0746 24.908 63.1306C25.0573 63.5783 25.3931 63.8022 25.9218 63.8022C26.4504 63.8022 26.7924 63.5783 26.9417 63.1306H26.9417ZM27.2464 64.1567C27.1905 64.1567 27.1469 64.1753 27.1158 64.2189L25.3247 66.8247C25.0324 67.2538 24.8023 67.6457 24.6219 67.9939H24.6033C24.653 67.5648 24.6779 67.117 24.6779 66.6568V64.2811C24.6779 64.1878 24.653 64.1567 24.5597 64.1567H24.3545C24.2613 64.1567 24.2301 64.1878 24.2301 64.2811V68.4479C24.2301 68.5412 24.2613 68.5723 24.3545 68.5723H24.5597C24.6157 68.5723 24.6593 68.5474 24.6903 68.5039L26.525 65.8359C26.8173 65.3881 27.0412 65.0212 27.1905 64.7351H27.2029C27.1469 65.1767 27.122 65.5996 27.122 66.0038V68.4479C27.122 68.5412 27.1531 68.5723 27.2464 68.5723H27.4516C27.5449 68.5723 27.5761 68.5412 27.5761 68.4479V64.2811C27.5761 64.1878 27.5449 64.1567 27.4516 64.1567H27.2464ZM31.1687 64.1567C31.0754 64.1567 31.0443 64.1878 31.0443 64.2811V65.5436C31.0443 66.5075 30.9697 67.1792 30.8267 67.5399C30.6774 67.9006 30.5717 68.0313 30.3975 68.1494H30.1799C30.0866 68.1494 30.0555 68.1805 30.0555 68.2737V69.3995C30.0555 69.4927 30.0866 69.5238 30.1799 69.5238H30.3789C30.4598 69.5238 30.4971 69.4803 30.4971 69.3995V68.5723H33.8243V69.3995C33.8243 69.4927 33.8491 69.5238 33.9424 69.5238H34.1415C34.2347 69.5238 34.2659 69.4927 34.2659 69.3995V68.2737C34.2659 68.1805 34.2347 68.1494 34.1415 68.1494H33.7497V64.2811C33.7497 64.1878 33.7186 64.1567 33.6253 64.1567H31.1687H31.1687ZM33.2957 64.5796V68.1494H30.9448C31.1065 67.969 31.2371 67.683 31.3366 67.3036C31.4299 66.9242 31.4797 66.3396 31.4797 65.5436V64.5796H33.2957H33.2957ZM38.325 64.1567C38.269 64.1567 38.2254 64.1753 38.1944 64.2189L36.4033 66.8247C36.111 67.2538 35.8808 67.6457 35.7005 67.9939H35.6818C35.7316 67.5648 35.7565 67.117 35.7565 66.6568V64.2811C35.7565 64.1878 35.7316 64.1567 35.6383 64.1567H35.4331C35.3398 64.1567 35.3086 64.1878 35.3086 64.2811V68.4479C35.3086 68.5412 35.3398 68.5723 35.4331 68.5723H35.6383C35.6942 68.5723 35.7378 68.5474 35.7689 68.5039L37.6035 65.8359C37.8958 65.3881 38.1197 65.0212 38.269 64.7351H38.2814C38.2254 65.1767 38.2005 65.5996 38.2005 66.0038V68.4479C38.2005 68.5412 38.2317 68.5723 38.325 68.5723H38.5302C38.6234 68.5723 38.6546 68.5412 38.6546 68.4479V64.2811C38.6546 64.1878 38.6235 64.1567 38.5302 64.1567H38.325ZM41.8679 64.2376C41.843 64.1692 41.787 64.138 41.7061 64.138H41.5196C41.4387 64.138 41.389 64.1753 41.3641 64.2438L39.6974 68.4541C39.6663 68.535 39.6912 68.5723 39.7783 68.5723H39.9462C40.0954 68.5723 40.139 68.5536 40.1639 68.4603L40.6303 67.2787H42.5769L43.0433 68.4603C43.0619 68.535 43.1366 68.5723 43.2672 68.5723H43.4475C43.5408 68.5723 43.5657 68.535 43.5346 68.4541L41.8679 64.2376H41.8679ZM42.4525 66.9056H40.7609L41.5134 64.9963C41.5631 64.8408 41.588 64.6978 41.588 64.5672H41.6191C41.6191 64.6854 41.6502 64.8284 41.7061 64.9963L42.4525 66.9056ZM44.6023 64.1567C44.509 64.1567 44.4779 64.1878 44.4779 64.2811V68.4479C44.4779 68.5412 44.509 68.5723 44.6023 68.5723H44.8075C44.9008 68.5723 44.9257 68.5412 44.9257 68.4479V64.5796H47.2578V68.4479C47.2578 68.5287 47.2951 68.5723 47.376 68.5723H47.5874C47.6683 68.5723 47.7056 68.5287 47.7056 68.4479V64.2811C47.7056 64.2002 47.6683 64.1567 47.5874 64.1567H44.6023H44.6023ZM50.9189 64.2376C50.894 64.1692 50.8381 64.138 50.7572 64.138H50.5707C50.4898 64.138 50.4401 64.1753 50.4152 64.2438L48.7484 68.4541C48.7174 68.535 48.7423 68.5723 48.8293 68.5723H48.9972C49.1464 68.5723 49.19 68.5536 49.2149 68.4603L49.6813 67.2787H51.6279L52.0943 68.4603C52.113 68.535 52.1876 68.5723 52.3182 68.5723H52.4986C52.5918 68.5723 52.6167 68.535 52.5856 68.4541L50.9189 64.2376H50.9189ZM51.5035 66.9056H49.8119L50.5644 64.9963C50.6142 64.8408 50.6391 64.6978 50.6391 64.5672H50.6701C50.6701 64.6854 50.7012 64.8284 50.7572 64.9963L51.5035 66.9056ZM56.4271 65.3073C56.4271 64.5175 55.9295 64.0696 54.9842 64.0696C54.0079 64.0696 53.4917 64.4179 53.2678 65.1331C53.2367 65.2078 53.2615 65.2575 53.3424 65.2886L53.5352 65.357C53.6161 65.3757 53.6658 65.3508 53.6969 65.2824C53.871 64.7289 54.2131 64.4863 54.9594 64.4863C55.6248 64.4863 55.9731 64.7911 55.9731 65.3445C55.9731 65.7923 55.7243 66.1095 55.2331 66.1095H54.2069C54.126 66.1095 54.0887 66.153 54.0887 66.2339V66.4018C54.0887 66.4827 54.126 66.52 54.2069 66.52H55.2828C55.8052 66.52 56.0913 66.8434 56.0913 67.3471C56.0913 67.9193 55.7305 68.2427 54.9842 68.2427C54.1944 68.2427 53.8337 67.9815 53.6596 67.428C53.6285 67.3471 53.5725 67.3161 53.4979 67.3471L53.3051 67.4155C53.2118 67.4467 53.1994 67.484 53.2305 67.5772C53.4544 68.2924 53.9892 68.6593 54.9842 68.6593C56.0353 68.6593 56.5639 68.1867 56.5639 67.3658C56.5639 66.8061 56.3276 66.4453 55.8611 66.2836C56.2405 66.1282 56.4271 65.7986 56.4271 65.3073H56.4271ZM57.6192 67.0984C57.6192 68.0747 58.2286 68.6593 59.3294 68.6593C60.424 68.6593 61.0335 68.0747 61.0335 67.0984V65.6307C61.0335 64.6542 60.424 64.0696 59.3294 64.0696C58.2286 64.0696 57.6192 64.6542 57.6192 65.6307V67.0984ZM60.5857 67.0984C60.5857 67.826 60.1442 68.2427 59.3294 68.2427C58.5147 68.2427 58.0669 67.826 58.0669 67.0984V65.6307C58.0669 64.903 58.5147 64.4863 59.3294 64.4863C60.1442 64.4863 60.5857 64.903 60.5857 65.6307V67.0984ZM65.2481 64.1567C65.1548 64.1567 65.1237 64.1878 65.1237 64.2811V66.122H62.7542V64.2811C62.7542 64.1878 62.7293 64.1567 62.636 64.1567H62.4308C62.3375 64.1567 62.3064 64.1878 62.3064 64.2811V68.4479C62.3064 68.5412 62.3375 68.5723 62.4308 68.5723H62.636C62.7293 68.5723 62.7542 68.5412 62.7542 68.4479V66.5449H65.1237V68.4479C65.1237 68.5412 65.1548 68.5723 65.2481 68.5723H65.4533C65.5341 68.5723 65.5715 68.5287 65.5715 68.4479V64.2811C65.5715 64.2003 65.5341 64.1567 65.4533 64.1567H65.2481ZM3.1262 71.6631C3.07022 71.6631 3.02666 71.6818 2.99559 71.7253L1.20449 74.3312C0.912189 74.7603 0.682041 75.1521 0.501696 75.5004H0.483035C0.532767 75.0712 0.557672 74.6235 0.557672 74.1633V71.7876C0.557672 71.6943 0.532767 71.6631 0.439476 71.6631H0.234303C0.141012 71.6631 0.109863 71.6943 0.109863 71.7876V75.9544C0.109863 76.0477 0.141005 76.0787 0.234303 76.0787H0.439476C0.495452 76.0787 0.539011 76.0538 0.570089 76.0103L2.40475 73.3423C2.69705 72.8945 2.92095 72.5276 3.07022 72.2416H3.08264C3.02666 72.6831 3.00176 73.106 3.00176 73.5102V75.9544C3.00176 76.0477 3.0329 76.0787 3.1262 76.0787H3.33137C3.42466 76.0787 3.45581 76.0477 3.45581 75.9544V71.7876C3.45581 71.6943 3.42467 71.6631 3.33137 71.6631H3.1262ZM7.80099 71.6631C7.7077 71.6631 7.67655 71.6943 7.67655 71.7876V73.6284H5.3071V71.7876C5.3071 71.6943 5.2822 71.6631 5.18891 71.6631H4.98373C4.89044 71.6631 4.85929 71.6943 4.85929 71.7876V75.9544C4.85929 76.0477 4.89044 76.0787 4.98373 76.0787H5.18891C5.2822 76.0787 5.3071 76.0477 5.3071 75.9544V74.0513H7.67655V75.9544C7.67655 76.0477 7.7077 76.0787 7.80099 76.0787H8.00617C8.08705 76.0787 8.12436 76.0352 8.12436 75.9544V71.7876C8.12436 71.7067 8.08705 71.6631 8.00617 71.6631H7.80099ZM14.3415 71.6631C14.1922 71.6631 14.1487 71.6756 14.0927 71.7689L12.8551 73.6471C12.8053 73.6408 12.7245 73.6346 12.6063 73.6346H12.2021V71.7876C12.2021 71.6943 12.171 71.6631 12.0777 71.6631H11.8725C11.7792 71.6631 11.7481 71.6943 11.7481 71.7876V73.6346H11.3501C11.2319 73.6346 11.1511 73.6408 11.0951 73.6471L9.85745 71.7689C9.80154 71.6756 9.75798 71.6631 9.60871 71.6631H9.38481C9.29152 71.6631 9.26668 71.7004 9.32266 71.7813L10.6598 73.7777C10.411 73.8771 10.2057 74.0886 10.0379 74.4182L9.2542 75.9544C9.19822 76.0352 9.22313 76.0787 9.31642 76.0787H9.52166C9.65228 76.0787 9.73308 76.0414 9.76423 75.9668L10.4545 74.5862C10.6598 74.1881 10.8712 74.0451 11.3501 74.0451H11.7481V75.9544C11.7481 76.0477 11.7792 76.0787 11.8725 76.0787H12.0777C12.171 76.0787 12.2021 76.0477 12.2021 75.9544V74.0451H12.6063C13.0852 74.0451 13.2966 74.1881 13.4957 74.5862L14.186 75.9668C14.2171 76.0414 14.298 76.0787 14.4286 76.0787H14.6337C14.727 76.0787 14.7519 76.0352 14.696 75.9544L13.9124 74.4182C13.7444 74.0886 13.5392 73.8771 13.2905 73.7777L14.6276 71.7813C14.6773 71.7253 14.6524 71.6631 14.5716 71.6631H14.3415ZM15.7886 71.6631C15.6953 71.6631 15.6641 71.6943 15.6641 71.7876V75.9544C15.6641 76.0477 15.6953 76.0787 15.7886 76.0787H18.3882C18.469 76.0787 18.5063 76.0352 18.5063 75.9544V75.7802C18.5063 75.6994 18.469 75.6558 18.3882 75.6558H16.1119V74.0513H18.0274C18.1083 74.0513 18.1456 74.0078 18.1456 73.9269V73.7528C18.1456 73.672 18.1083 73.6284 18.0274 73.6284H16.1119V72.086H18.3073C18.3882 72.086 18.4255 72.0426 18.4255 71.9617V71.7876C18.4255 71.7067 18.3882 71.6631 18.3073 71.6631H15.7885H15.7886ZM22.6027 71.6631C22.5094 71.6631 22.4783 71.6943 22.4783 71.7876V73.6284H20.1088V71.7876C20.1088 71.6943 20.0839 71.6631 19.9906 71.6631H19.7855C19.6922 71.6631 19.661 71.6943 19.661 71.7876V75.9544C19.661 76.0477 19.6922 76.0787 19.7855 76.0787H19.9906C20.0839 76.0787 20.1088 76.0477 20.1088 75.9544V74.0513H22.4783V75.9544C22.4783 76.0477 22.5094 76.0787 22.6027 76.0787H22.8079C22.8888 76.0787 22.9261 76.0352 22.9261 75.9544V71.7876C22.9261 71.7067 22.8888 71.6631 22.8079 71.6631H22.6027ZM24.454 71.6631C24.3607 71.6631 24.3296 71.6943 24.3296 71.7876V75.9544C24.3296 76.0477 24.3607 76.0787 24.454 76.0787H27.0536C27.1344 76.0787 27.1717 76.0352 27.1717 75.9544V75.7802C27.1717 75.6994 27.1344 75.6558 27.0536 75.6558H24.7774V74.0513H26.6928C26.7737 74.0513 26.811 74.0078 26.811 73.9269V73.7528C26.811 73.672 26.7737 73.6284 26.6928 73.6284H24.7774V72.086H26.9727C27.0536 72.086 27.0909 72.0426 27.0909 71.9617V71.7876C27.0909 71.7067 27.0536 71.6631 26.9727 71.6631H24.454H24.454ZM28.4509 71.6631C28.3576 71.6631 28.3265 71.6943 28.3265 71.7876V75.9544C28.3265 76.0477 28.3576 76.0787 28.4509 76.0787H28.6561C28.7494 76.0787 28.7743 76.0477 28.7743 75.9544V74.4182H30.1114C30.982 74.4182 31.5169 73.9083 31.5169 73.0438C31.5169 72.1793 30.982 71.6631 30.1114 71.6631H28.4509ZM28.7743 74.0016V72.086H30.0741C30.6773 72.086 31.0505 72.4468 31.0505 73.0438C31.0505 73.6408 30.6773 74.0016 30.0741 74.0016H28.7743V74.0016ZM35.5699 71.6631C35.4766 71.6631 35.4454 71.6943 35.4454 71.7876V73.6284H33.076V71.7876C33.076 71.6943 33.0511 71.6631 32.9578 71.6631H32.7526C32.6593 71.6631 32.6282 71.6943 32.6282 71.7876V75.9544C32.6282 76.0477 32.6593 76.0787 32.7526 76.0787H32.9578C33.0511 76.0787 33.076 76.0477 33.076 75.9544V74.0513H35.4454V75.9544C35.4454 76.0477 35.4766 76.0787 35.5699 76.0787H35.775C35.8559 76.0787 35.8932 76.0352 35.8932 75.9544V71.7876C35.8932 71.7067 35.8559 71.6631 35.775 71.6631H35.5699ZM39.0816 76.0787C39.9523 76.0787 40.4871 75.5625 40.4871 74.6981C40.4871 73.8337 39.9523 73.3237 39.0816 73.3237H37.7445V71.7876C37.7445 71.6943 37.7196 71.6631 37.6263 71.6631H37.4211C37.3279 71.6631 37.2967 71.6943 37.2967 71.7876V75.9544C37.2967 76.0477 37.3278 76.0787 37.4211 76.0787H39.0816ZM41.2397 75.9544C41.2397 76.0477 41.2707 76.0787 41.364 76.0787H41.5693C41.6626 76.0787 41.6936 76.0477 41.6936 75.9544V71.7876C41.6936 71.6943 41.6626 71.6631 41.5693 71.6631H41.364C41.2707 71.6631 41.2397 71.6943 41.2397 71.7876V75.9544ZM39.0443 73.7404C39.6476 73.7404 40.0207 74.101 40.0207 74.6981C40.0207 75.2951 39.6476 75.6558 39.0443 75.6558H37.7445V73.7404H39.0443ZM44.8261 73.8336L46.3063 71.7813C46.3498 71.7253 46.325 71.6631 46.2441 71.6631H45.9953C45.8647 71.6631 45.8274 71.6756 45.7714 71.7689L44.5463 73.4791L43.3273 71.7689C43.2589 71.6756 43.2216 71.6631 43.091 71.6631H42.8422C42.7614 71.6631 42.7365 71.7253 42.7801 71.7813L44.254 73.8336L42.7365 75.9481C42.6868 76.0165 42.6992 76.0787 42.7925 76.0787H43.0288C43.1718 76.0787 43.2091 76.0663 43.2651 75.9668L44.5276 74.1819L45.8087 75.9668C45.8585 76.0663 45.8958 76.0787 46.0451 76.0787H46.2939C46.3933 76.0787 46.4058 76.0165 46.356 75.9481L44.8261 73.8336H44.8261ZM48.9599 71.6631C48.8666 71.6631 48.8355 71.6943 48.8355 71.7876V75.9544C48.8355 76.0476 48.8666 76.0787 48.9599 76.0787H49.1651C49.2584 76.0787 49.2833 76.0477 49.2833 75.9544V74.4182H50.6204C51.491 74.4182 52.0259 73.9083 52.0259 73.0438C52.0259 72.1793 51.491 71.6631 50.6204 71.6631H48.9599ZM49.2833 74.0016V72.086H50.5831C51.1863 72.086 51.5595 72.4468 51.5595 73.0438C51.5595 73.6408 51.1863 74.0016 50.5831 74.0016H49.2833V74.0016ZM53.2616 71.6631C53.1683 71.6631 53.1371 71.6943 53.1371 71.7876V75.9544C53.1371 76.0476 53.1683 76.0787 53.2616 76.0787H55.8612C55.942 76.0787 55.9793 76.0352 55.9793 75.9544V75.7802C55.9793 75.6994 55.942 75.6558 55.8612 75.6558H53.585V74.0513H55.5004C55.5813 74.0513 55.6186 74.0077 55.6186 73.9269V73.7528C55.6186 73.672 55.5813 73.6284 55.5004 73.6284H53.585V72.086H55.7803C55.8612 72.086 55.8985 72.0425 55.8985 71.9617V71.7876C55.8985 71.7067 55.8612 71.6631 55.7803 71.6631H53.2616H53.2616ZM61.5061 71.6631C61.4129 71.6631 61.3817 71.6943 61.3817 71.7876V75.6558H59.7088V71.7876C59.7088 71.6943 59.6777 71.6631 59.5845 71.6631H59.3792C59.2859 71.6631 59.2548 71.6943 59.2548 71.7876V75.6558H57.5819V71.7876C57.5819 71.6943 57.557 71.6631 57.4637 71.6631H57.2585C57.1652 71.6631 57.1341 71.6943 57.1341 71.7876V75.9544C57.1341 76.0476 57.1652 76.0787 57.2585 76.0787H61.7113C61.8046 76.0787 61.8357 76.0477 61.8357 75.9544V71.7876C61.8357 71.6943 61.8046 71.6631 61.7113 71.6631H61.5061H61.5061ZM63.3637 71.6631C63.2704 71.6631 63.2393 71.6943 63.2393 71.7876V75.9544C63.2393 76.0476 63.2704 76.0787 63.3637 76.0787H65.9633C66.0441 76.0787 66.0814 76.0352 66.0814 75.9544V75.7802C66.0814 75.6994 66.0441 75.6558 65.9633 75.6558H63.6871V74.0513H65.6025C65.6834 74.0513 65.7207 74.0077 65.7207 73.9269V73.7528C65.7207 73.672 65.6834 73.6284 65.6025 73.6284H63.6871V72.086H65.8824C65.9633 72.086 66.0006 72.0425 66.0006 71.9617V71.7876C66.0006 71.7067 65.9633 71.6631 65.8824 71.6631H63.3637H63.3637ZM70.1779 71.6631C70.0846 71.6631 70.0534 71.6943 70.0534 71.7876V73.6284H67.684V71.7876C67.684 71.6943 67.6591 71.6631 67.5658 71.6631H67.3606C67.2673 71.6631 67.2362 71.6943 67.2362 71.7876V75.9544C67.2362 76.0476 67.2673 76.0787 67.3606 76.0787H67.5658C67.6591 76.0787 67.684 76.0477 67.684 75.9544V74.0513H70.0534V75.9544C70.0534 76.0476 70.0846 76.0787 70.1779 76.0787H70.383C70.4639 76.0787 70.5012 76.0352 70.5012 75.9544V71.7876C70.5012 71.7067 70.4639 71.6631 70.383 71.6631H70.1779ZM74.921 71.6631C74.8651 71.6631 74.8215 71.6818 74.7904 71.7253L72.9993 74.3312C72.707 74.7603 72.4769 75.1521 72.2965 75.5004H72.2779C72.3276 75.0712 72.3525 74.6235 72.3525 74.1633V71.7876C72.3525 71.6943 72.3276 71.6631 72.2343 71.6631H72.0292C71.9359 71.6631 71.9047 71.6943 71.9047 71.7876V75.9544C71.9047 76.0476 71.9359 76.0787 72.0292 76.0787H72.2343C72.2903 76.0787 72.3339 76.0538 72.3649 76.0103L74.1996 73.3423C74.4919 72.8945 74.7158 72.5276 74.8651 72.2415H74.8775C74.8215 72.6831 74.7966 73.106 74.7966 73.5102V75.9544C74.7966 76.0476 74.8278 76.0787 74.921 76.0787H75.1262C75.2195 76.0787 75.2507 76.0477 75.2507 75.9544V71.7876C75.2507 71.6943 75.2195 71.6631 75.1262 71.6631H74.921ZM79.3657 70.637C79.3782 70.5935 79.3595 70.5562 79.3097 70.5313L79.1294 70.4691C79.0734 70.4566 79.0423 70.4753 79.0237 70.5188C78.918 70.836 78.6941 70.9977 78.3458 70.9977C77.9975 70.9977 77.7736 70.836 77.6741 70.5188C77.6555 70.4753 77.6119 70.4566 77.5498 70.4753L77.388 70.5313C77.332 70.5499 77.3134 70.5811 77.332 70.637C77.4813 71.0848 77.8172 71.3087 78.3458 71.3087C78.8744 71.3087 79.2164 71.0848 79.3657 70.637H79.3657ZM79.6705 71.6631C79.6145 71.6631 79.5709 71.6818 79.5399 71.7253L77.7488 74.3312C77.4565 74.7603 77.2263 75.1521 77.046 75.5004H77.0273C77.077 75.0712 77.102 74.6235 77.102 74.1633V71.7876C77.102 71.6943 77.077 71.6631 76.9838 71.6631H76.7786C76.6853 71.6631 76.6541 71.6943 76.6541 71.7876V75.9544C76.6541 76.0476 76.6853 76.0787 76.7786 76.0787H76.9838C77.0397 76.0787 77.0833 76.0538 77.1144 76.0103L78.949 73.3423C79.2413 72.8945 79.4652 72.5276 79.6145 72.2415H79.6269C79.5709 72.6831 79.546 73.106 79.546 73.5102V75.9544C79.546 76.0476 79.5772 76.0787 79.6705 76.0787H79.8756C79.9689 76.0787 80.0001 76.0477 80.0001 75.9544V71.7876C80.0001 71.6943 79.9689 71.6631 79.8756 71.6631H79.6705Z" fill="#2B2E49"/>
<path d="M0 60.0098H79.9365V60.3409H0V60.0098Z" fill="#2B2E49"/>
<path fill-rule="evenodd" clip-rule="evenodd" d="M75.5366 18.8444L72.2106 24.6448C71.5117 25.871 71.4578 27.4303 72.2106 28.7434C73.3424 30.7172 75.86 31.3998 77.8339 30.268C79.8077 29.1363 80.4904 26.6187 79.3586 24.6448L76.0326 18.8444C75.9227 18.6528 75.6464 18.6528 75.5366 18.8444Z" fill="#394690"/>
<path d="M10.8433 34.7427L10.8433 39.7807C10.8433 39.8908 10.9915 39.9801 11.1743 39.9801L12.9762 39.9801C13.159 39.9801 13.3072 39.8908 13.3072 39.7807L13.3072 34.7427C13.3072 34.6326 13.159 34.5433 12.9762 34.5433L11.1743 34.5433C10.9915 34.5433 10.8433 34.6326 10.8433 34.7427Z" fill="#394690"/>
<path d="M1.45328 8.01042C1.45328 7.73825 1.54748 7.50796 1.7359 7.31941C1.92423 7.13101 2.15466 7.03687 2.42683 7.03687H11.9117C13.0842 7.03687 14.1626 7.2252 15.1468 7.60217C16.1099 8.021 16.937 8.56534 17.6278 9.23523C17.9839 9.59136 18.2979 9.97856 18.57 10.3974C18.8422 10.8162 19.0726 11.2663 19.261 11.7479C19.6378 12.7321 19.8263 13.7998 19.8263 14.9513C19.8263 16.7311 19.3971 18.2492 18.5386 19.5055C17.8686 20.5105 16.9997 21.306 15.9319 21.8925C15.7015 22.018 15.555 22.1907 15.4921 22.4106C15.4293 22.6305 15.4816 22.845 15.6491 23.0544C16.4239 24.1013 17.1619 25.0906 17.8633 26.0224C18.5648 26.9541 19.2924 27.9434 20.0462 28.9903C20.2137 29.2207 20.2607 29.451 20.1876 29.6813C20.1142 29.9116 19.9414 30.0268 19.6693 30.0268H16.4971C16.2249 30.0268 15.9424 29.9535 15.6491 29.8069C15.356 29.6604 15.1257 29.4824 14.9582 29.2731C14.6023 28.7915 14.2515 28.3151 13.9062 27.8439C13.5607 27.3729 13.2099 26.8965 12.854 26.415L10.781 23.4941C10.6137 23.2638 10.3832 23.0754 10.0902 22.9287C9.79702 22.7823 9.51427 22.7089 9.2421 22.7089H6.82383C6.55152 22.7089 6.32123 22.8031 6.1329 22.9916C5.94449 23.1801 5.85014 23.4103 5.85014 23.6827C5.85014 27.4779 5.84466 31.2728 5.84466 35.0681H16.8495C18.059 35.0681 19.0395 36.0486 19.0395 37.2581V49.4024C19.0395 50.6119 18.059 51.5924 16.8495 51.5924H5.62567V53.2275H1.2457V49.4024C1.2457 48.1929 2.2262 47.2124 3.43565 47.2124H14.6595V39.448H3.65465C2.44519 39.448 1.4647 38.4675 1.4647 37.2581C1.4647 27.509 1.45326 17.76 1.45326 8.01041L1.45328 8.01042ZM0.331087 54.0635H6.64918C6.83149 54.0635 6.98027 54.2125 6.98027 54.3946V56.1963C6.98027 56.3784 6.83149 56.5274 6.64918 56.5274H0.331087C0.148775 56.5274 0 56.3784 0 56.1963V54.3946C0 54.2125 0.148783 54.0635 0.331087 54.0635ZM6.82384 18.8145H11.9117C12.2886 18.8145 12.6969 18.7307 13.1365 18.5632C13.5973 18.3956 13.9847 18.155 14.2986 17.8409C14.6127 17.5267 14.8851 17.1289 15.1153 16.6473C15.3247 16.2076 15.4293 15.6423 15.4293 14.9513C15.4293 14.5746 15.3874 14.1768 15.3037 13.7579C15.2618 13.5277 15.1991 13.3025 15.1153 13.0827C15.0315 12.8628 14.9373 12.6483 14.8325 12.4389C14.5814 12.02 14.2253 11.6641 13.7648 11.371C13.2832 11.078 12.6656 10.9313 11.9117 10.9313H6.82384C6.55154 10.9313 6.32125 11.0255 6.13291 11.214C5.9445 11.4024 5.85015 11.6327 5.85015 11.905V17.8409C5.85015 18.1131 5.94449 18.3434 6.13291 18.5317C6.32125 18.7203 6.55154 18.8145 6.82384 18.8145Z" fill="#394690"/>
<path d="M26.4297 11.905V15.7052C26.4297 15.9773 26.5239 16.2077 26.7123 16.3961C26.9008 16.5846 27.1311 16.6788 27.4033 16.6788H36.5741C36.8464 16.6788 37.0767 16.773 37.2651 16.9615C37.4535 17.1499 37.5478 17.3802 37.5478 17.6524V19.6939C37.5478 19.9661 37.4536 20.1964 37.2651 20.3848C37.0767 20.5733 36.8464 20.6675 36.5741 20.6675H27.4033C27.1311 20.6675 26.9008 20.7617 26.7123 20.9501C26.5239 21.1386 26.4297 21.3689 26.4297 21.6411V25.0959C26.4297 25.368 26.5239 25.5984 26.7123 25.7868C26.9008 25.9753 27.1311 26.0695 27.4033 26.0695H37.9875C38.2597 26.0695 38.49 26.1637 38.6784 26.3522C38.8668 26.5406 38.9611 26.7709 38.9611 27.0431V29.0532C38.9611 29.3253 38.8669 29.5557 38.6784 29.7441C38.49 29.9326 38.2597 30.0268 37.9875 30.0268H23.0063C22.7342 30.0268 22.5038 29.9326 22.3154 29.7441C22.1269 29.5557 22.0327 29.3253 22.0327 29.0532V8.01049C22.0327 7.73832 22.1269 7.50796 22.3154 7.31955C22.5038 7.13108 22.7342 7.03687 23.0063 7.03687H37.9875C38.2597 7.03687 38.49 7.13107 38.6784 7.31955C38.8668 7.50796 38.9611 7.73832 38.9611 8.01049V9.95773C38.9611 10.2299 38.8669 10.4603 38.6784 10.6487C38.49 10.8371 38.2597 10.9314 37.9875 10.9314H27.4033C27.1311 10.9314 26.9008 11.0256 26.7123 11.214C26.5239 11.4025 26.4297 11.6327 26.4297 11.905V11.905Z" fill="#394690"/>
<path fill-rule="evenodd" clip-rule="evenodd" d="M45.8475 17.3383V29.0532C45.8475 29.3253 45.7534 29.5556 45.5649 29.7442C45.3765 29.9325 45.1461 30.0267 44.8739 30.0267H42.3928C42.1415 30.0267 41.9216 29.9325 41.7332 29.7442C41.5449 29.5556 41.4507 29.3253 41.4507 29.0532V7.57069C41.4507 7.29852 41.5814 7.13628 41.8431 7.08395C42.1049 7.03148 42.33 7.08907 42.5184 7.25665L56.3061 20.2906C56.5155 20.479 56.6882 20.5419 56.8245 20.479C56.9605 20.4162 57.0285 20.2487 57.0285 19.9765V8.04179C57.0285 7.99612 57.0312 7.95158 57.0365 7.90823V7.80112C57.0365 7.3134 57.4316 6.91827 57.9194 6.91827H64.7141C65.273 6.00343 66.1728 5.31909 67.1653 4.96499V3.86861C67.1653 3.80815 67.1714 3.74908 67.1832 3.69198H64.8131C64.3254 3.69198 63.9302 3.29678 63.9302 2.80913V1.87598C63.9302 1.38826 64.3254 0.993122 64.8131 0.993122H67.1653V0.882996C67.1653 0.395344 67.5168 0 68.0044 0H69.3465C69.8342 0 70.1858 0.383699 70.1858 0.871421V0.981477H72.538C73.0257 0.981477 73.4211 1.37668 73.4211 1.86433V2.79755C73.4211 3.2852 73.0257 3.68041 72.538 3.68041H70.1679C70.1796 3.73751 70.1858 3.79657 70.1858 3.85704V4.95342C71.1782 5.30751 72.078 6.00329 72.6369 6.91827H74.3366C76.4154 6.91827 77.957 8.31991 77.957 10.3987V12.7559H73.5674V11.8657C73.5674 11.5642 73.2087 11.3191 72.9072 11.3191H72.7278C71.9158 12.7808 70.3841 13.6961 68.6756 13.6961C66.967 13.6961 65.4354 12.7808 64.6232 11.3191H61.4256V29.4928C61.4256 29.7647 61.2944 29.9274 61.0329 29.9796C60.7713 30.0318 60.5356 29.9744 60.3262 29.8069L46.57 16.9928C46.3605 16.8252 46.1879 16.773 46.0518 16.8358C45.9155 16.8986 45.8475 17.0661 45.8475 17.3383L45.8475 17.3383ZM73.1739 13.592H78.3978C78.5958 13.592 78.7576 13.7536 78.7576 13.9517V15.9095C78.7576 16.1076 78.5958 16.2692 78.3978 16.2692H73.1739C72.9759 16.2692 72.8142 16.1076 72.8142 15.9095V13.9517C72.8142 13.7536 72.9759 13.592 73.1739 13.592Z" fill="#394690"/>
<path d="M19.3688 40.7989H14.3307C14.2206 40.7989 14.1313 40.9471 14.1313 41.1299V42.9318C14.1313 43.1146 14.2206 43.2628 14.3307 43.2628H19.3688C19.4789 43.2628 19.5681 43.1146 19.5681 42.9318V41.1299C19.5681 40.9471 19.4789 40.7989 19.3688 40.7989Z" fill="#394690"/>
<path d="M6.9834 46.8782L6.9834 51.9162C6.9834 52.0263 7.1316 52.1156 7.31442 52.1156L9.11633 52.1156C9.29915 52.1156 9.44735 52.0263 9.44735 51.9162L9.44735 46.8782C9.44735 46.7681 9.29915 46.6788 9.11633 46.6788L7.31442 46.6788C7.1316 46.6788 6.9834 46.7681 6.9834 46.8782Z" fill="#394690"/>
<path d="M6.17346 31.2506H1.13541C1.0253 31.2506 0.936035 31.3988 0.936035 31.5816V33.3835C0.936035 33.5664 1.0253 33.7146 1.13541 33.7146H6.17346C6.28357 33.7146 6.37283 33.5664 6.37283 33.3835V31.5816C6.37283 31.3988 6.28357 31.2506 6.17346 31.2506Z" fill="#394690"/>
</svg>
