<svg width="115" height="109" viewBox="0 0 115 109" fill="none" xmlns="http://www.w3.org/2000/svg">
<path d="M49.8409 78.8282L38.3325 66.368C38.1017 66.1084 37.8998 66.0147 37.7268 66.0868C37.5537 66.1589 37.4672 66.3824 37.4672 66.7574V78.4821C37.4672 78.8571 37.3374 79.1743 37.0778 79.4339C36.8182 79.6935 36.5009 79.8233 36.126 79.8233H32.7081C32.3332 79.8233 32.0231 79.6935 31.7779 79.4339C31.5328 79.1743 31.4102 78.8571 31.4102 78.4821V49.4947C31.4102 49.1197 31.5328 48.8025 31.7779 48.5429C32.023 48.2833 32.3332 48.1535 32.7081 48.1535H36.126C36.5009 48.1535 36.8182 48.2834 37.0778 48.5429C37.3374 48.8025 37.4672 49.1197 37.4672 49.4947V62.9068C37.4672 63.2818 37.5465 63.4981 37.7051 63.5558C37.8638 63.6135 38.0585 63.4981 38.2892 63.2097L49.2352 49.2351C49.466 48.9467 49.7833 48.7015 50.1871 48.4996C50.5909 48.2977 50.9802 48.1968 51.3552 48.1968H56.1576C56.5326 48.1968 56.7704 48.2977 56.8715 48.4996C56.9723 48.7015 56.9075 48.9467 56.6768 49.2351L45.2981 63.5125C45.0674 63.801 44.9592 64.1399 44.9736 64.5293C44.9881 64.9186 45.1251 65.2431 45.3847 65.5027L57.8449 78.8715C58.0757 79.1311 58.155 79.3546 58.0828 79.5421C58.0107 79.7296 57.7873 79.8233 57.4123 79.8233H52.0474C51.6725 79.8233 51.2687 79.7296 50.836 79.5421C50.4034 79.3546 50.0717 79.1166 49.8409 78.8282L49.8409 78.8282ZM55.9491 78.6551L70.9619 48.6727C71.135 48.3266 71.4234 48.1535 71.8272 48.1535C72.231 48.1535 72.5195 48.3266 72.6925 48.6727L87.7053 78.6551C87.8784 78.9724 87.9001 79.2464 87.7702 79.4772C87.6404 79.7079 87.3882 79.8233 87.0132 79.8233H83.0761C82.7011 79.8233 82.3262 79.7079 81.9512 79.4772C81.5762 79.2464 81.3167 78.958 81.1724 78.6119L79.8745 76.016C79.7014 75.6987 79.4346 75.4247 79.0741 75.1941C78.7135 74.9633 78.3458 74.8479 77.9708 74.8479H65.6836C65.3086 74.8479 64.9337 74.9633 64.5587 75.1941C64.1838 75.4247 63.9242 75.7131 63.7799 76.0593L62.5253 78.6119C62.3522 78.958 62.0854 79.2464 61.7249 79.4772C61.3643 79.7079 60.9966 79.8233 60.6216 79.8233H56.6846C56.3096 79.8233 56.0573 79.7079 55.9275 79.4772C55.7977 79.2464 55.8049 78.9724 55.9491 78.6551ZM68.6256 69.5696H75.0288C75.4038 69.5696 75.6562 69.447 75.786 69.2019C75.9157 68.9567 75.9085 68.6755 75.7643 68.3582L72.3897 61.2195C72.2454 60.8734 72.058 60.7003 71.8272 60.7003C71.5965 60.7003 71.409 60.8734 71.2648 61.2195L67.8468 68.3582C67.7026 68.7043 67.7026 68.9928 67.8468 69.2235C67.9911 69.4542 68.2507 69.5696 68.6256 69.5696H68.6256ZM97.6641 74.199H112.071C112.446 74.199 112.763 74.3288 113.023 74.5883C113.283 74.8479 113.412 75.1652 113.412 75.5402V78.4821C113.412 78.8571 113.283 79.1743 113.023 79.4339C112.763 79.6935 112.446 79.8233 112.071 79.8233H86.5451C86.1701 79.8233 85.925 79.6358 85.8096 79.2609C85.6942 78.8859 85.7519 78.5398 85.9827 78.2225L102.64 54.8596C102.87 54.5423 102.928 54.2827 102.813 54.0808C102.697 53.8789 102.452 53.7779 102.077 53.7779H88.3622C88.0161 53.7779 87.7132 53.6481 87.4537 53.3885C87.194 53.129 87.0643 52.8117 87.0643 52.4367V49.5381C87.0643 49.1631 87.1941 48.8458 87.4537 48.5862C87.7132 48.3267 88.0161 48.1969 88.3622 48.1969H113.153C113.528 48.1969 113.773 48.3843 113.888 48.7593C114.004 49.1343 113.946 49.4804 113.715 49.7977L97.1016 73.1173C96.8997 73.4346 96.8565 73.6942 96.9718 73.8961C97.0872 74.098 97.318 74.199 97.6641 74.199L97.6641 74.199Z" fill="#FEFEFE"/>
<path d="M0.333651 91.4617C0.200655 91.4617 0.15625 91.5061 0.15625 91.6391V97.5793C0.15625 97.7123 0.200645 97.7566 0.333651 97.7566H0.626145C0.759141 97.7566 0.794645 97.7123 0.794645 97.5793V92.0646H4.11933V97.5793C4.11933 97.6945 4.17253 97.7566 4.28783 97.7566H4.58923C4.70453 97.7566 4.75773 97.6945 4.75773 97.5793V91.6391C4.75773 91.5238 4.70453 91.4617 4.58923 91.4617H0.333641H0.333651ZM6.57243 95.6554C6.57243 97.0473 7.44123 97.8807 9.01053 97.8807C10.5709 97.8807 11.4398 97.0473 11.4398 95.6554V93.563C11.4398 92.171 10.5709 91.3376 9.01053 91.3376C7.44123 91.3376 6.57243 92.171 6.57243 93.563V95.6554ZM10.8014 95.6554C10.8014 96.6927 10.172 97.2867 9.01053 97.2867C7.84913 97.2867 7.21073 96.6927 7.21073 95.6554V93.563C7.21073 92.5257 7.84913 91.9316 9.01053 91.9316C10.172 91.9316 10.8014 92.5257 10.8014 93.563V95.6554ZM14.0435 91.4617C13.9283 91.4617 13.8751 91.5238 13.8751 91.6391V93.6428C13.8751 94.8131 13.7687 95.6731 13.6534 96.1341C13.5914 96.3735 13.5027 96.5686 13.3875 96.737C13.2633 96.9055 13.1569 97.0119 13.0772 97.0651C12.9974 97.1271 12.8732 97.198 12.7136 97.2778C12.5984 97.3399 12.5718 97.4197 12.625 97.5172L12.758 97.7743C12.8023 97.8807 12.8821 97.9073 12.9885 97.8541C13.1924 97.7566 13.3609 97.6679 13.4761 97.5881C13.5914 97.5084 13.7244 97.3754 13.8751 97.1803C14.0258 96.9853 14.1411 96.7459 14.2209 96.471C14.3805 95.9213 14.5046 94.9549 14.5046 93.6339V92.0646H17.058V97.5793C17.058 97.7123 17.0935 97.7566 17.2264 97.7566H17.519C17.652 97.7566 17.6963 97.7123 17.6963 97.5793V91.6391C17.6963 91.5061 17.652 91.4617 17.519 91.4617H14.0435H14.0435ZM23.8111 91.4617C23.6781 91.4617 23.6337 91.5061 23.6337 91.6391V94.2634H20.2558V91.6391C20.2558 91.5061 20.2203 91.4617 20.0873 91.4617H19.7948C19.6618 91.4617 19.6174 91.5061 19.6174 91.6391V97.5793C19.6174 97.7123 19.6618 97.7566 19.7948 97.7566H20.0873C20.2203 97.7566 20.2558 97.7123 20.2558 97.5793V94.8663H23.6337V97.5793C23.6337 97.7123 23.6781 97.7566 23.8111 97.7566H24.1036C24.2189 97.7566 24.2721 97.6945 24.2721 97.5793V91.6391C24.2721 91.5238 24.2189 91.4617 24.1036 91.4617H23.8111ZM28.8174 97.7566C30.0586 97.7566 30.8211 97.0207 30.8211 95.7883C30.8211 94.556 30.0586 93.829 28.8174 93.829H26.9113V91.6391C26.9113 91.5061 26.8758 91.4617 26.7428 91.4617H26.4503C26.3173 91.4617 26.2729 91.5061 26.2729 91.6391V97.5793C26.2729 97.7123 26.3173 97.7566 26.4503 97.7566H28.8174ZM31.8939 97.5793C31.8939 97.7123 31.9382 97.7566 32.0712 97.7566H32.3638C32.4968 97.7566 32.5411 97.7123 32.5411 97.5793V91.6391C32.5411 91.5061 32.4968 91.4617 32.3638 91.4617H32.0712C31.9382 91.4617 31.8939 91.5061 31.8939 91.6391V97.5793ZM28.7643 94.423C29.6243 94.423 30.1562 94.9372 30.1562 95.7883C30.1562 96.6395 29.6242 97.1537 28.7643 97.1537H26.9113V94.423H28.7643ZM38.4076 89.9989C38.4254 89.9368 38.3988 89.8836 38.3278 89.8481L38.0707 89.7595C37.9909 89.7417 37.9466 89.7683 37.92 89.8304C37.7693 90.2826 37.4501 90.5131 36.9536 90.5131C36.4571 90.5131 36.1379 90.2826 35.9961 89.8304C35.9695 89.7683 35.9074 89.7417 35.8188 89.7683L35.5882 89.8481C35.5084 89.8747 35.4818 89.9191 35.5084 89.9989C35.7212 90.6372 36.2 90.9564 36.9536 90.9564C37.7072 90.9564 38.1948 90.6372 38.4076 89.9989H38.4076ZM38.8421 91.4617C38.7623 91.4617 38.7002 91.4883 38.6559 91.5504L36.1025 95.2653C35.6858 95.877 35.3577 96.4356 35.1006 96.9321H35.074C35.1449 96.3203 35.1804 95.682 35.1804 95.0259V91.6391C35.1804 91.5061 35.1449 91.4617 35.0119 91.4617H34.7194C34.5864 91.4617 34.542 91.5061 34.542 91.6391V97.5793C34.542 97.7122 34.5864 97.7566 34.7194 97.7566H35.0119C35.0917 97.7566 35.1538 97.721 35.1981 97.6591L37.8136 93.8556C38.2303 93.2172 38.5495 92.6941 38.7623 92.2863H38.78C38.7002 92.9158 38.6647 93.5187 38.6647 94.0949V97.5793C38.6647 97.7122 38.7091 97.7566 38.8421 97.7566H39.1346C39.2676 97.7566 39.312 97.7123 39.312 97.5793V91.6391C39.312 91.5061 39.2676 91.4617 39.1346 91.4617H38.8421ZM44.4337 91.4617C44.3007 91.4617 44.2564 91.5061 44.2564 91.6391V93.4389C44.2564 94.8131 44.15 95.7706 43.9461 96.2848C43.7333 96.7991 43.5826 96.9853 43.3343 97.1537H43.024C42.891 97.1537 42.8467 97.1979 42.8467 97.331V98.9358C42.8467 99.0687 42.891 99.1131 43.024 99.1131H43.3077C43.423 99.1131 43.4762 99.051 43.4762 98.9358V97.7566H48.2195V98.9358C48.2195 99.0687 48.2549 99.1131 48.3879 99.1131H48.6717C48.8046 99.1131 48.849 99.0688 48.849 98.9358V97.331C48.849 97.198 48.8046 97.1537 48.6717 97.1537H48.1131V91.6391C48.1131 91.5061 48.0688 91.4617 47.9358 91.4617H44.4337H44.4337ZM47.4659 92.0646V97.1537H44.1145C44.345 96.8966 44.5312 96.4888 44.6731 95.9479C44.8061 95.4071 44.877 94.5737 44.877 93.4389V92.0646H47.4659H47.4659ZM54.6357 91.4617C54.5559 91.4617 54.4938 91.4883 54.4495 91.5504L51.8961 95.2653C51.4794 95.877 51.1513 96.4356 50.8942 96.9321H50.8676C50.9385 96.3203 50.974 95.682 50.974 95.0259V91.6391C50.974 91.5061 50.9385 91.4617 50.8055 91.4617H50.513C50.38 91.4617 50.3356 91.5061 50.3356 91.6391V97.5793C50.3356 97.7122 50.38 97.7566 50.513 97.7566H50.8055C50.8853 97.7566 50.9474 97.721 50.9917 97.6591L53.6072 93.8556C54.0239 93.2172 54.3431 92.6941 54.5559 92.2863H54.5736C54.4938 92.9158 54.4583 93.5187 54.4583 94.0949V97.5793C54.4583 97.7122 54.5027 97.7566 54.6357 97.7566H54.9282C55.0612 97.7566 55.1056 97.7123 55.1056 97.5793V91.6391C55.1056 91.5061 55.0612 91.4617 54.9282 91.4617H54.6357ZM59.6865 91.577C59.6509 91.4795 59.5711 91.4351 59.4559 91.4351H59.19C59.0746 91.4351 59.0037 91.4883 58.9683 91.5859L56.5922 97.5881C56.5479 97.7034 56.5834 97.7566 56.7075 97.7566H56.9469C57.1596 97.7566 57.2217 97.73 57.2572 97.597L57.9221 95.9125H60.6971L61.362 97.597C61.3886 97.7034 61.495 97.7566 61.6812 97.7566H61.9383C62.0713 97.7566 62.1068 97.7034 62.0625 97.5881L59.6865 91.577H59.6865ZM60.5198 95.3805H58.1083L59.181 92.6587C59.2519 92.437 59.2875 92.2331 59.2875 92.0469H59.3317C59.3317 92.2154 59.376 92.4193 59.4559 92.6587L60.5198 95.3805ZM63.5846 91.4617C63.4516 91.4617 63.4072 91.5061 63.4072 91.6391V97.5793C63.4072 97.7122 63.4516 97.7566 63.5846 97.7566H63.8771C64.0101 97.7566 64.0456 97.7123 64.0456 97.5793V92.0646H67.3703V97.5793C67.3703 97.6945 67.4235 97.7566 67.5388 97.7566H67.8402C67.9555 97.7566 68.0087 97.6945 68.0087 97.5793V91.6391C68.0087 91.5238 67.9555 91.4617 67.8402 91.4617H63.5846H63.5846ZM72.5896 91.577C72.5541 91.4795 72.4743 91.4351 72.359 91.4351H72.0931C71.9778 91.4351 71.9069 91.4883 71.8714 91.5859L69.4953 97.5881C69.451 97.7034 69.4865 97.7566 69.6106 97.7566H69.85C70.0627 97.7566 70.1248 97.73 70.1603 97.597L70.8252 95.9125H73.6003L74.2652 97.597C74.2918 97.7034 74.3982 97.7566 74.5844 97.7566H74.8415C74.9745 97.7566 75.01 97.7034 74.9656 97.5881L72.5896 91.577H72.5896ZM73.423 95.3805H71.0114L72.0842 92.6587C72.1551 92.437 72.1906 92.2331 72.1906 92.0469H72.2349C72.2349 92.2154 72.2792 92.4193 72.359 92.6587L73.423 95.3805ZM80.442 93.102C80.442 91.976 79.7327 91.3376 78.3851 91.3376C76.9932 91.3376 76.2573 91.8341 75.9381 92.8537C75.8938 92.9601 75.9292 93.031 76.0445 93.0754L76.3193 93.1729C76.4346 93.1995 76.5055 93.164 76.5499 93.0665C76.7981 92.2774 77.2857 91.9316 78.3497 91.9316C79.2983 91.9316 79.7948 92.3661 79.7948 93.1551C79.7948 93.7935 79.4402 94.2457 78.7398 94.2457H77.2769C77.1616 94.2457 77.1084 94.3077 77.1084 94.423V94.6624C77.1084 94.7776 77.1616 94.8308 77.2769 94.8308H78.8107C79.5554 94.8308 79.9633 95.2919 79.9633 96.01C79.9633 96.8257 79.449 97.2867 78.3851 97.2867C77.2591 97.2867 76.7449 96.9143 76.4967 96.1253C76.4523 96.01 76.3725 95.9657 76.2661 96.01L75.9913 96.1075C75.8583 96.1519 75.8406 96.2051 75.8849 96.338C76.2041 97.3576 76.9666 97.8807 78.3851 97.8807C79.8835 97.8807 80.6371 97.2069 80.6371 96.0366C80.6371 95.2387 80.3002 94.7244 79.6352 94.4939C80.176 94.2723 80.442 93.8024 80.442 93.102H80.442ZM82.1415 95.6554C82.1415 97.0473 83.0103 97.8807 84.5796 97.8807C86.14 97.8807 87.0089 97.0473 87.0089 95.6554V93.563C87.0089 92.171 86.14 91.3376 84.5796 91.3376C83.0103 91.3376 82.1415 92.171 82.1415 93.563V95.6554ZM86.3704 95.6554C86.3704 96.6927 85.7411 97.2867 84.5796 97.2867C83.4182 97.2867 82.7798 96.6927 82.7798 95.6554V93.563C82.7798 92.5257 83.4182 91.9316 84.5796 91.9316C85.7411 91.9316 86.3704 92.5257 86.3704 93.563V95.6554ZM93.0172 91.4617C92.8842 91.4617 92.8398 91.5061 92.8398 91.6391V94.2634H89.4619V91.6391C89.4619 91.5061 89.4264 91.4617 89.2934 91.4617H89.0009C88.868 91.4617 88.8235 91.5061 88.8235 91.6391V97.5793C88.8235 97.7123 88.8679 97.7566 89.0009 97.7566H89.2934C89.4264 97.7566 89.4619 97.7123 89.4619 97.5793V94.8663H92.8398V97.5793C92.8398 97.7123 92.8842 97.7566 93.0172 97.7566H93.3097C93.425 97.7566 93.4782 97.6945 93.4782 97.5793V91.6391C93.4782 91.5238 93.425 91.4617 93.3097 91.4617H93.0172ZM4.45633 102.163C4.37654 102.163 4.31444 102.189 4.27013 102.252L1.71674 105.966C1.30004 106.578 0.971946 107.137 0.714846 107.633H0.688242C0.759141 107.021 0.794645 106.383 0.794645 105.727V102.34C0.794645 102.207 0.759141 102.163 0.626145 102.163H0.333651C0.200655 102.163 0.15625 102.207 0.15625 102.34V108.28C0.15625 108.413 0.200645 108.458 0.333651 108.458H0.626145C0.705944 108.458 0.768042 108.422 0.812347 108.36L3.42783 104.557C3.84453 103.918 4.16373 103.395 4.37654 102.987H4.39424C4.31444 103.617 4.27893 104.22 4.27893 104.796V108.28C4.27893 108.413 4.32333 108.458 4.45633 108.458H4.74883C4.88182 108.458 4.92623 108.413 4.92623 108.28V102.34C4.92623 102.207 4.88183 102.163 4.74883 102.163H4.45633ZM11.1207 102.163C10.9877 102.163 10.9433 102.207 10.9433 102.34V104.965H7.56543V102.34C7.56543 102.207 7.52992 102.163 7.39693 102.163H7.10443C6.97144 102.163 6.92703 102.207 6.92703 102.34V108.28C6.92703 108.413 6.97143 108.458 7.10443 108.458H7.39693C7.52992 108.458 7.56543 108.413 7.56543 108.28V105.567H10.9433V108.28C10.9433 108.413 10.9877 108.458 11.1207 108.458H11.4132C11.5285 108.458 11.5817 108.396 11.5817 108.28V102.34C11.5817 102.225 11.5285 102.163 11.4132 102.163H11.1207ZM20.4448 102.163C20.232 102.163 20.17 102.181 20.0902 102.314L18.3259 104.991C18.2549 104.982 18.1397 104.973 17.9712 104.973H17.3949V102.34C17.3949 102.207 17.3506 102.163 17.2176 102.163H16.925C16.792 102.163 16.7477 102.207 16.7477 102.34V104.973H16.1803C16.0118 104.973 15.8966 104.982 15.8168 104.991L14.0524 102.314C13.9727 102.181 13.9106 102.163 13.6978 102.163H13.3786C13.2456 102.163 13.2102 102.216 13.29 102.331L15.1962 105.177C14.8415 105.319 14.5489 105.621 14.3096 106.091L13.1924 108.28C13.1126 108.396 13.1481 108.458 13.2811 108.458H13.5737C13.7599 108.458 13.8751 108.405 13.9195 108.298L14.9036 106.33C15.1962 105.762 15.4976 105.559 16.1803 105.559H16.7477V108.28C16.7477 108.413 16.792 108.458 16.925 108.458H17.2176C17.3506 108.458 17.3949 108.413 17.3949 108.28V105.559H17.9712C18.6539 105.559 18.9553 105.762 19.2391 106.33L20.2232 108.298C20.2675 108.405 20.3828 108.458 20.569 108.458H20.8615C20.9945 108.458 21.03 108.396 20.9502 108.28L19.8331 106.091C19.5937 105.621 19.3011 105.319 18.9465 105.177L20.8527 102.331C20.9236 102.252 20.8881 102.163 20.7729 102.163H20.4448ZM22.5078 102.163C22.3748 102.163 22.3304 102.207 22.3304 102.34V108.28C22.3304 108.413 22.3748 108.458 22.5078 108.458H26.2138C26.329 108.458 26.3822 108.396 26.3822 108.28V108.032C26.3822 107.917 26.329 107.855 26.2138 107.855H22.9688V105.567H25.6995C25.8148 105.567 25.868 105.505 25.868 105.39V105.142C25.868 105.027 25.8148 104.965 25.6995 104.965H22.9688V102.766H26.0985C26.2138 102.766 26.267 102.704 26.267 102.588V102.34C26.267 102.225 26.2138 102.163 26.0985 102.163H22.5078H22.5078ZM32.222 102.163C32.089 102.163 32.0446 102.207 32.0446 102.34V104.965H28.6668V102.34C28.6668 102.207 28.6312 102.163 28.4983 102.163H28.2058C28.0728 102.163 28.0284 102.207 28.0284 102.34V108.28C28.0284 108.413 28.0728 108.458 28.2058 108.458H28.4983C28.6312 108.458 28.6668 108.413 28.6668 108.28V105.567H32.0446V108.28C32.0446 108.413 32.089 108.458 32.222 108.458H32.5145C32.6298 108.458 32.683 108.396 32.683 108.28V102.34C32.683 102.225 32.6298 102.163 32.5145 102.163H32.222ZM34.8612 102.163C34.7282 102.163 34.6838 102.207 34.6838 102.34V108.28C34.6838 108.413 34.7282 108.458 34.8612 108.458H38.5672C38.6824 108.458 38.7356 108.396 38.7356 108.28V108.032C38.7356 107.917 38.6824 107.855 38.5672 107.855H35.3222V105.567H38.0529C38.1682 105.567 38.2214 105.505 38.2214 105.39V105.142C38.2214 105.027 38.1682 104.965 38.0529 104.965H35.3222V102.766H38.4519C38.5672 102.766 38.6204 102.704 38.6204 102.588V102.34C38.6204 102.225 38.5672 102.163 38.4519 102.163H34.8612H34.8612ZM40.5592 102.163C40.4262 102.163 40.3818 102.207 40.3818 102.34V108.28C40.3818 108.413 40.4262 108.458 40.5592 108.458H40.8517C40.9847 108.458 41.0202 108.413 41.0202 108.28V106.091H42.9264C44.1676 106.091 44.9301 105.364 44.9301 104.131C44.9301 102.899 44.1676 102.163 42.9264 102.163H40.5592ZM41.0202 105.497V102.766H42.8732C43.7332 102.766 44.2652 103.28 44.2652 104.131C44.2652 104.982 43.7332 105.497 42.8732 105.497H41.0202V105.497ZM50.708 102.163C50.575 102.163 50.5306 102.207 50.5306 102.34V104.965H47.1527V102.34C47.1527 102.207 47.1172 102.163 46.9842 102.163H46.6917C46.5587 102.163 46.5143 102.207 46.5143 102.34V108.28C46.5143 108.413 46.5587 108.458 46.6917 108.458H46.9842C47.1172 108.458 47.1527 108.413 47.1527 108.28V105.567H50.5306V108.28C50.5306 108.413 50.575 108.458 50.708 108.458H51.0005C51.1158 108.458 51.169 108.396 51.169 108.28V102.34C51.169 102.225 51.1158 102.163 51.0005 102.163H50.708ZM55.7143 108.458C56.9555 108.458 57.718 107.722 57.718 106.489C57.718 105.257 56.9555 104.53 55.7143 104.53H53.8082V102.34C53.8082 102.207 53.7726 102.163 53.6396 102.163H53.3472C53.2142 102.163 53.1698 102.207 53.1698 102.34V108.28C53.1698 108.413 53.2141 108.458 53.3472 108.458H55.7143ZM58.7908 108.28C58.7908 108.413 58.8351 108.458 58.9681 108.458H59.2607C59.3937 108.458 59.438 108.413 59.438 108.28V102.34C59.438 102.207 59.3937 102.163 59.2607 102.163H58.9681C58.8351 102.163 58.7908 102.207 58.7908 102.34V108.28ZM55.6611 105.124C56.5211 105.124 57.0531 105.638 57.0531 106.489C57.0531 107.341 56.5211 107.855 55.6611 107.855H53.8082V105.124H55.6611ZM63.9037 105.257L66.0138 102.331C66.0759 102.252 66.0404 102.163 65.9251 102.163H65.5705C65.3843 102.163 65.3311 102.181 65.2513 102.314L63.5047 104.752L61.767 102.314C61.6695 102.181 61.6163 102.163 61.4301 102.163H61.0754C60.9602 102.163 60.9247 102.252 60.9868 102.331L63.088 105.257L60.9247 108.272C60.8538 108.369 60.8715 108.458 61.0045 108.458H61.3414C61.5453 108.458 61.5985 108.44 61.6783 108.298L63.4781 105.754L65.3045 108.298C65.3755 108.44 65.4286 108.458 65.6414 108.458H65.9961C66.1379 108.458 66.1557 108.369 66.0847 108.272L63.9037 105.257H63.9037ZM69.7968 102.163C69.6638 102.163 69.6194 102.207 69.6194 102.34V108.28C69.6194 108.413 69.6638 108.458 69.7968 108.458H70.0893C70.2223 108.458 70.2578 108.413 70.2578 108.28V106.091H72.164C73.4052 106.091 74.1677 105.364 74.1677 104.131C74.1677 102.899 73.4052 102.163 72.164 102.163H69.7968ZM70.2578 105.497V102.766H72.1108C72.9708 102.766 73.5028 103.28 73.5028 104.131C73.5028 104.982 72.9708 105.497 72.1108 105.497H70.2578V105.497ZM75.9293 102.163C75.7963 102.163 75.7519 102.207 75.7519 102.34V108.28C75.7519 108.413 75.7963 108.458 75.9293 108.458H79.6353C79.7505 108.458 79.8037 108.396 79.8037 108.28V108.032C79.8037 107.917 79.7505 107.855 79.6353 107.855H76.3903V105.567H79.121C79.2363 105.567 79.2895 105.505 79.2895 105.39V105.142C79.2895 105.027 79.2363 104.965 79.121 104.965H76.3903V102.766H79.52C79.6353 102.766 79.6885 102.704 79.6885 102.588V102.34C79.6885 102.225 79.6353 102.163 79.52 102.163H75.9293H75.9293ZM87.6826 102.163C87.5497 102.163 87.5053 102.207 87.5053 102.34V107.855H85.1204V102.34C85.1204 102.207 85.076 102.163 84.9431 102.163H84.6505C84.5175 102.163 84.4732 102.207 84.4732 102.34V107.855H82.0883V102.34C82.0883 102.207 82.0527 102.163 81.9198 102.163H81.6273C81.4943 102.163 81.4499 102.207 81.4499 102.34V108.28C81.4499 108.413 81.4943 108.458 81.6273 108.458H87.9752C88.1082 108.458 88.1525 108.413 88.1525 108.28V102.34C88.1525 102.207 88.1082 102.163 87.9752 102.163H87.6826H87.6826ZM90.3308 102.163C90.1978 102.163 90.1534 102.207 90.1534 102.34V108.28C90.1534 108.413 90.1978 108.458 90.3308 108.458H94.0368C94.152 108.458 94.2052 108.396 94.2052 108.28V108.032C94.2052 107.917 94.152 107.855 94.0368 107.855H90.7918V105.567H93.5225C93.6378 105.567 93.691 105.505 93.691 105.39V105.142C93.691 105.027 93.6378 104.965 93.5225 104.965H90.7918V102.766H93.9215C94.0368 102.766 94.09 102.704 94.09 102.588V102.34C94.09 102.225 94.0368 102.163 93.9215 102.163H90.3308H90.3308ZM100.045 102.163C99.9121 102.163 99.8677 102.207 99.8677 102.34V104.965H96.4898V102.34C96.4898 102.207 96.4543 102.163 96.3213 102.163H96.0288C95.8958 102.163 95.8514 102.207 95.8514 102.34V108.28C95.8514 108.413 95.8958 108.458 96.0288 108.458H96.3213C96.4543 108.458 96.4898 108.413 96.4898 108.28V105.567H99.8677V108.28C99.8677 108.413 99.9121 108.458 100.045 108.458H100.338C100.453 108.458 100.506 108.396 100.506 108.28V102.34C100.506 102.225 100.453 102.163 100.338 102.163H100.045ZM106.807 102.163C106.727 102.163 106.665 102.189 106.621 102.252L104.067 105.966C103.651 106.578 103.323 107.137 103.065 107.633H103.039C103.11 107.021 103.145 106.383 103.145 105.727V102.34C103.145 102.207 103.11 102.163 102.977 102.163H102.684C102.551 102.163 102.507 102.207 102.507 102.34V108.28C102.507 108.413 102.551 108.458 102.684 108.458H102.977C103.057 108.458 103.119 108.422 103.163 108.36L105.778 104.557C106.195 103.918 106.514 103.395 106.727 102.987H106.745C106.665 103.617 106.63 104.22 106.63 104.796V108.28C106.63 108.413 106.674 108.458 106.807 108.458H107.099C107.232 108.458 107.277 108.413 107.277 108.28V102.34C107.277 102.207 107.232 102.163 107.099 102.163H106.807ZM113.143 100.7C113.161 100.638 113.134 100.585 113.063 100.549L112.806 100.461C112.727 100.443 112.682 100.469 112.656 100.532C112.505 100.984 112.186 101.214 111.689 101.214C111.193 101.214 110.874 100.984 110.732 100.532C110.705 100.469 110.643 100.443 110.554 100.469L110.324 100.549C110.244 100.576 110.217 100.62 110.244 100.7C110.457 101.338 110.936 101.658 111.689 101.658C112.443 101.658 112.93 101.338 113.143 100.7H113.143ZM113.578 102.163C113.498 102.163 113.436 102.189 113.392 102.252L110.838 105.966C110.421 106.578 110.093 107.137 109.836 107.633H109.81C109.881 107.021 109.916 106.383 109.916 105.727V102.34C109.916 102.207 109.881 102.163 109.748 102.163H109.455C109.322 102.163 109.278 102.207 109.278 102.34V108.28C109.278 108.413 109.322 108.458 109.455 108.458H109.748C109.827 108.458 109.889 108.422 109.934 108.36L112.549 104.557C112.966 103.918 113.285 103.395 113.498 102.987H113.516C113.436 103.617 113.4 104.22 113.4 104.796V108.28C113.4 108.413 113.445 108.458 113.578 108.458H113.87C114.003 108.458 114.048 108.413 114.048 108.28V102.34C114.048 102.207 114.003 102.163 113.87 102.163H113.578Z" fill="#FEFEFE"/>
<path d="M0 85.5498H113.957V86.0218H0V85.5498Z" fill="#FEFEFE"/>
<path fill-rule="evenodd" clip-rule="evenodd" d="M107.685 26.8646L102.943 35.1337C101.947 36.8818 101.87 39.1047 102.943 40.9766C104.557 43.7905 108.146 44.7636 110.96 43.1501C113.774 41.5367 114.747 37.9476 113.133 35.1336L108.392 26.8646C108.235 26.5914 107.841 26.5914 107.685 26.8646Z" fill="#FEFEFE"/>
<path d="M15.458 49.5291L15.458 56.7114C15.458 56.8683 15.6693 56.9956 15.9299 56.9956L18.4987 56.9956C18.7593 56.9956 18.9706 56.8683 18.9706 56.7114L18.9706 49.5291C18.9706 49.3721 18.7593 49.2449 18.4987 49.2449L15.9299 49.2449C15.6693 49.2449 15.458 49.3721 15.458 49.5291Z" fill="#FEFEFE"/>
<path d="M2.07179 11.4196C2.07179 11.0316 2.20609 10.7033 2.47469 10.4345C2.74319 10.1659 3.07169 10.0317 3.45969 10.0317H16.9813C18.6528 10.0317 20.1902 10.3002 21.5932 10.8376C22.9662 11.4347 24.1453 12.2107 25.1301 13.1657C25.6378 13.6734 26.0854 14.2254 26.4734 14.8225C26.8614 15.4195 27.1899 16.0611 27.4585 16.7478C27.9956 18.1507 28.2644 19.6729 28.2644 21.3145C28.2644 23.8517 27.6525 26.0159 26.4286 27.8069C25.4735 29.2396 24.2347 30.3738 22.7125 31.2098C22.384 31.3887 22.1752 31.635 22.0855 31.9484C21.996 32.2619 22.0706 32.5677 22.3094 32.8662C23.4139 34.3587 24.466 35.7691 25.4659 37.0975C26.4659 38.4257 27.5033 39.836 28.5778 41.3285C28.8167 41.657 28.8837 41.9853 28.7794 42.3136C28.6748 42.6419 28.4285 42.8061 28.0405 42.8061H23.5182C23.1302 42.8061 22.7274 42.7016 22.3094 42.4927C21.8915 42.2838 21.5632 42.0301 21.3244 41.7316C20.817 41.0451 20.3169 40.3659 19.8246 39.6942C19.3321 39.0228 18.832 38.3436 18.3246 37.6571L15.3694 33.4931C15.1308 33.1648 14.8023 32.8962 14.3845 32.6871C13.9666 32.4783 13.5635 32.3737 13.1755 32.3737H9.72804C9.33984 32.3737 9.01154 32.508 8.74305 32.7768C8.47445 33.0454 8.33994 33.3736 8.33994 33.7619C8.33994 39.1724 8.33215 44.5825 8.33215 49.9929H24.0207C25.7449 49.9929 27.1427 51.3908 27.1427 53.115V70.428C27.1427 72.1522 25.7449 73.5499 24.0207 73.5499H8.01995V75.8809H1.77587V70.428C1.77587 68.7037 3.17366 67.3059 4.89786 67.3059H20.8986V56.237H5.21006C3.48586 56.237 2.08807 54.8392 2.08807 53.115C2.08807 39.2168 2.07177 25.3185 2.07177 11.4196L2.07179 11.4196ZM0.471998 77.0727H9.47906C9.73897 77.0727 9.95106 77.2851 9.95106 77.5447V80.1133C9.95106 80.3729 9.73896 80.5853 9.47906 80.5853H0.471998C0.212094 80.5853 0 80.3729 0 80.1133V77.5447C0 77.2851 0.212104 77.0727 0.471998 77.0727ZM9.72806 26.8218H16.9813C17.5186 26.8218 18.1006 26.7024 18.7274 26.4636C19.3842 26.2247 19.9365 25.8816 20.3841 25.4339C20.8318 24.986 21.2201 24.4189 21.5483 23.7323C21.8469 23.1055 21.996 22.2996 21.996 21.3145C21.996 20.7774 21.9363 20.2103 21.8169 19.6132C21.7572 19.2849 21.6678 18.9639 21.5483 18.6505C21.4289 18.3371 21.2946 18.0313 21.1452 17.7327C20.7872 17.1357 20.2796 16.6283 19.623 16.2104C18.9365 15.7927 18.056 15.5836 16.9813 15.5836H9.72806C9.33986 15.5836 9.01156 15.7178 8.74307 15.9867C8.47447 16.2551 8.33996 16.5834 8.33996 16.9716V25.4339C8.33996 25.8219 8.47446 26.1502 8.74307 26.4187C9.01156 26.6875 9.33986 26.8218 9.72806 26.8218Z" fill="#FEFEFE"/>
<path d="M37.6785 16.9717V22.3892C37.6785 22.7772 37.8128 23.1056 38.0814 23.3742C38.3501 23.6429 38.6784 23.7772 39.0664 23.7772H52.1404C52.5285 23.7772 52.8568 23.9115 53.1255 24.1802C53.3941 24.4488 53.5284 24.7771 53.5284 25.1652V28.0755C53.5284 28.4635 53.3941 28.7919 53.1255 29.0605C52.8568 29.3292 52.5285 29.4635 52.1404 29.4635H39.0664C38.6784 29.4635 38.3501 29.5978 38.0814 29.8664C37.8128 30.1351 37.6785 30.4634 37.6785 30.8515V35.7766C37.6785 36.1646 37.8128 36.493 38.0814 36.7616C38.3501 37.0303 38.6784 37.1646 39.0664 37.1646H54.1553C54.5433 37.1646 54.8716 37.2989 55.1403 37.5676C55.4089 37.8362 55.5432 38.1645 55.5432 38.5526V41.4181C55.5432 41.8061 55.4089 42.1345 55.1403 42.4031C54.8716 42.6718 54.5433 42.8061 54.1553 42.8061H32.7982C32.4102 42.8061 32.0818 42.6718 31.8132 42.4031C31.5445 42.1345 31.4102 41.8061 31.4102 41.4181V11.4197C31.4102 11.0317 31.5445 10.7033 31.8132 10.4347C32.0818 10.166 32.4102 10.0317 32.7982 10.0317H54.1553C54.5433 10.0317 54.8716 10.166 55.1403 10.4347C55.4089 10.7033 55.5432 11.0317 55.5432 11.4197V14.1957C55.5432 14.5837 55.4089 14.9121 55.1403 15.1807C54.8716 15.4493 54.5433 15.5837 54.1553 15.5837H39.0664C38.6784 15.5837 38.3501 15.718 38.0814 15.9866C37.8128 16.2553 37.6785 16.5836 37.6785 16.9717V16.9717Z" fill="#FEFEFE"/>
<path fill-rule="evenodd" clip-rule="evenodd" d="M65.3599 24.7174V41.4182C65.3599 41.8062 65.2257 42.1345 64.9571 42.4033C64.6885 42.6718 64.36 42.8061 63.972 42.8061H60.4349C60.0766 42.8061 59.7632 42.6718 59.4946 42.4033C59.2261 42.1345 59.0918 41.8062 59.0918 41.4182V10.7928C59.0918 10.4048 59.2782 10.1735 59.6513 10.0989C60.0245 10.0241 60.3454 10.1062 60.614 10.3451L80.2696 28.9262C80.5682 29.1948 80.8143 29.2845 81.0086 29.1948C81.2026 29.1053 81.2995 28.8665 81.2995 28.4785V11.4644C81.2995 11.3993 81.3033 11.3358 81.3109 11.274V11.1213C81.3109 10.426 81.8742 9.86267 82.5695 9.86267H92.2561C93.0528 8.55848 94.3357 7.58288 95.7506 7.07808V5.51509C95.7506 5.42889 95.7593 5.34469 95.776 5.26328H92.3972C91.702 5.26328 91.1386 4.69988 91.1386 4.00469V2.67439C91.1386 1.97909 91.702 1.41579 92.3972 1.41579H95.7506V1.2588C95.7506 0.563602 96.2516 0 96.9468 0H98.8601C99.5554 0 100.057 0.547001 100.057 1.2423V1.39919H103.41C104.105 1.39919 104.669 1.96259 104.669 2.65779V3.98819C104.669 4.68338 104.105 5.24678 103.41 5.24678H100.031C100.048 5.32819 100.057 5.41238 100.057 5.49859V7.06158C101.471 7.56638 102.754 8.55828 103.551 9.86267H105.974C108.937 9.86267 111.135 11.8609 111.135 14.8244V18.1847H104.877V16.9157C104.877 16.4859 104.366 16.1364 103.936 16.1364H103.68C102.523 18.2203 100.339 19.5251 97.9036 19.5251C95.4678 19.5251 93.2844 18.2203 92.1265 16.1364H87.568V42.0449C87.568 42.4324 87.381 42.6644 87.0082 42.7388C86.6353 42.8133 86.2992 42.7314 86.0007 42.4926L66.3899 24.2249C66.0913 23.986 65.8452 23.9115 65.6512 24.0011C65.4569 24.0906 65.3599 24.3294 65.3599 24.7174L65.3599 24.7174ZM104.316 19.3767H111.764C112.046 19.3767 112.276 19.607 112.276 19.8895V22.6805C112.276 22.963 112.046 23.1933 111.764 23.1933H104.316C104.034 23.1933 103.804 22.963 103.804 22.6805V19.8895C103.804 19.607 104.034 19.3767 104.316 19.3767Z" fill="#FEFEFE"/>
<path d="M27.612 58.1628H20.4297C20.2728 58.1628 20.1455 58.3741 20.1455 58.6347V61.2035C20.1455 61.4641 20.2728 61.6754 20.4297 61.6754H27.612C27.7689 61.6754 27.8962 61.4641 27.8962 61.2035V58.6347C27.8962 58.3741 27.7689 58.1628 27.612 58.1628Z" fill="#FEFEFE"/>
<path d="M9.95508 66.8295L9.95508 74.0117C9.95508 74.1687 10.1664 74.2959 10.427 74.2959L12.9958 74.2959C13.2564 74.2959 13.4677 74.1687 13.4677 74.0117L13.4677 66.8295C13.4677 66.6725 13.2564 66.5452 12.9958 66.5452L10.427 66.5452C10.1664 66.5452 9.95508 66.6725 9.95508 66.8295Z" fill="#FEFEFE"/>
<path d="M8.80143 44.5508H1.61918C1.46221 44.5508 1.33496 44.7621 1.33496 45.0227V47.5915C1.33496 47.8522 1.46221 48.0634 1.61918 48.0634H8.80143C8.9584 48.0634 9.08565 47.8522 9.08565 47.5915V45.0227C9.08565 44.7621 8.9584 44.5508 8.80143 44.5508Z" fill="#FEFEFE"/>
</svg>
