<svg width="117" height="111" viewBox="0 0 117 111" fill="none" xmlns="http://www.w3.org/2000/svg">
<path d="M51.0093 80.6765L39.2311 67.9241C38.9949 67.6584 38.7883 67.5625 38.6112 67.6363C38.4341 67.7101 38.3455 67.9389 38.3455 68.3226V80.3222C38.3455 80.706 38.2127 81.0307 37.947 81.2963C37.6813 81.562 37.3566 81.6949 36.9729 81.6949H33.4748C33.0911 81.6949 32.7738 81.562 32.5228 81.2963C32.272 81.0307 32.1465 80.706 32.1465 80.3222V50.6553C32.1465 50.2716 32.272 49.9469 32.5228 49.6812C32.7737 49.4155 33.0911 49.2827 33.4748 49.2827H36.9729C37.3566 49.2827 37.6813 49.4156 37.947 49.6812C38.2127 49.9469 38.3455 50.2716 38.3455 50.6553V64.3818C38.3455 64.7656 38.4267 64.9869 38.589 65.046C38.7514 65.1051 38.9507 64.9869 39.1868 64.6918L50.3894 50.3897C50.6256 50.0945 50.9503 49.8436 51.3636 49.6369C51.7768 49.4303 52.1752 49.327 52.559 49.327H57.474C57.8578 49.327 58.1012 49.4303 58.2046 49.6369C58.3079 49.8436 58.2415 50.0945 58.0054 50.3897L46.36 65.0017C46.1239 65.2969 46.0131 65.6438 46.0279 66.0423C46.0427 66.4407 46.1829 66.7728 46.4486 67.0385L59.2008 80.7208C59.4371 80.9865 59.5182 81.2152 59.4444 81.4071C59.3706 81.599 59.1419 81.6949 58.7581 81.6949H53.2675C52.8838 81.6949 52.4705 81.599 52.0277 81.4071C51.5849 81.2152 51.2455 80.9716 51.0092 80.6764L51.0093 80.6765ZM57.2606 80.4993L72.6254 49.8141C72.8025 49.4599 73.0977 49.2827 73.511 49.2827C73.9242 49.2827 74.2195 49.4599 74.3965 49.8141L89.7613 80.4993C89.9385 80.824 89.9606 81.1045 89.8277 81.3407C89.6949 81.5768 89.4367 81.6949 89.0529 81.6949H85.0235C84.6397 81.6949 84.256 81.5768 83.8722 81.3407C83.4885 81.1045 83.2229 80.8093 83.0752 80.4551L81.7469 77.7983C81.5697 77.4736 81.2967 77.1932 80.9277 76.9571C80.5587 76.7209 80.1823 76.6028 79.7986 76.6028H67.2234C66.8396 76.6028 66.4559 76.7209 66.0721 76.9571C65.6884 77.1932 65.4227 77.4883 65.275 77.8427L63.991 80.4551C63.8139 80.8093 63.5408 81.1045 63.1719 81.3407C62.8028 81.5768 62.4265 81.6949 62.0427 81.6949H58.0133C57.6296 81.6949 57.3713 81.5768 57.2385 81.3407C57.1057 81.1045 57.113 80.824 57.2606 80.4993ZM70.2343 71.2008H76.7876C77.1714 71.2008 77.4297 71.0753 77.5625 70.8244C77.6953 70.5735 77.6879 70.2857 77.5403 69.961L74.0866 62.6549C73.939 62.3007 73.7472 62.1236 73.5109 62.1236C73.2748 62.1236 73.0829 62.3007 72.9354 62.6549L69.4373 69.961C69.2897 70.3152 69.2897 70.6104 69.4373 70.8465C69.5849 71.0827 69.8506 71.2008 70.2343 71.2008H70.2343ZM99.9535 75.9387H114.698C115.082 75.9387 115.407 76.0715 115.672 76.3371C115.938 76.6028 116.071 76.9275 116.071 77.3113V80.3223C116.071 80.706 115.938 81.0307 115.672 81.2964C115.407 81.562 115.082 81.6949 114.698 81.6949H88.5738C88.19 81.6949 87.9392 81.503 87.8211 81.1193C87.703 80.7355 87.762 80.3813 87.9982 80.0566L105.046 56.146C105.282 55.8213 105.341 55.5556 105.223 55.3489C105.105 55.1423 104.854 55.0389 104.47 55.0389H90.4335C90.0793 55.0389 89.7693 54.9061 89.5037 54.6404C89.238 54.3748 89.1052 54.0501 89.1052 53.6663V50.6997C89.1052 50.3159 89.238 49.9911 89.5037 49.7255C89.7693 49.4599 90.0793 49.327 90.4335 49.327H115.805C116.189 49.327 116.44 49.5188 116.558 49.9026C116.676 50.2864 116.617 50.6406 116.381 50.9654L99.3778 74.8316C99.1712 75.1564 99.127 75.422 99.245 75.6287C99.3631 75.8353 99.5993 75.9387 99.9535 75.9387L99.9535 75.9387Z" fill="white"/>
<path d="M0.339763 93.6057C0.203649 93.6057 0.158203 93.6511 0.158203 93.7872V99.8667C0.158203 100.003 0.203639 100.048 0.339763 100.048H0.639113C0.775226 100.048 0.811563 100.003 0.811563 99.8667V94.2227H4.21419V99.8667C4.21419 99.9846 4.26863 100.048 4.38664 100.048H4.6951C4.8131 100.048 4.86755 99.9846 4.86755 99.8667V93.7872C4.86755 93.6692 4.8131 93.6057 4.6951 93.6057H0.339752H0.339763ZM6.72479 97.8977C6.72479 99.3222 7.61395 100.175 9.22003 100.175C10.817 100.175 11.7063 99.3222 11.7063 97.8977V95.7562C11.7063 94.3316 10.817 93.4787 9.22003 93.4787C7.61395 93.4787 6.72479 94.3316 6.72479 95.7562V97.8977ZM11.0529 97.8977C11.0529 98.9593 10.4088 99.5672 9.22003 99.5672C8.03141 99.5672 7.37805 98.9593 7.37805 97.8977V95.7562C7.37805 94.6946 8.03141 94.0866 9.22003 94.0866C10.4088 94.0866 11.0529 94.6946 11.0529 95.7562V97.8977ZM14.371 93.6057C14.2531 93.6057 14.1986 93.6692 14.1986 93.7872V95.8379C14.1986 97.0356 14.0897 97.9158 13.9718 98.3876C13.9083 98.6326 13.8175 98.8323 13.6996 99.0046C13.5725 99.1771 13.4636 99.286 13.382 99.3404C13.3004 99.4039 13.1733 99.4764 13.0099 99.5581C12.892 99.6217 12.8648 99.7033 12.9192 99.8031L13.0554 100.066C13.1007 100.175 13.1824 100.202 13.2913 100.148C13.4999 100.048 13.6724 99.9573 13.7903 99.8757C13.9083 99.7941 14.0444 99.658 14.1986 99.4583C14.3529 99.2587 14.4709 99.0137 14.5525 98.7324C14.7159 98.1698 14.8429 97.1808 14.8429 95.8288V94.2227H17.4561V99.8667C17.4561 100.003 17.4925 100.048 17.6285 100.048H17.9279C18.0641 100.048 18.1094 100.003 18.1094 99.8667V93.7872C18.1094 93.6511 18.0641 93.6057 17.9279 93.6057H14.371H14.371ZM24.3675 93.6057C24.2314 93.6057 24.186 93.6511 24.186 93.7872V96.4731H20.7289V93.7872C20.7289 93.6511 20.6926 93.6057 20.5564 93.6057H20.2571C20.121 93.6057 20.0755 93.6511 20.0755 93.7872V99.8667C20.0755 100.003 20.121 100.048 20.2571 100.048H20.5564C20.6926 100.048 20.7289 100.003 20.7289 99.8667V97.0901H24.186V99.8667C24.186 100.003 24.2314 100.048 24.3675 100.048H24.6669C24.7849 100.048 24.8393 99.9846 24.8393 99.8667V93.7872C24.8393 93.6692 24.7849 93.6057 24.6669 93.6057H24.3675ZM29.4913 100.048C30.7615 100.048 31.5419 99.295 31.5419 98.0337C31.5419 96.7725 30.7615 96.0285 29.4913 96.0285H27.5404V93.7872C27.5404 93.6511 27.504 93.6057 27.3679 93.6057H27.0686C26.9325 93.6057 26.887 93.6511 26.887 93.7872V99.8667C26.887 100.003 26.9325 100.048 27.0686 100.048H29.4913ZM32.6399 99.8667C32.6399 100.003 32.6852 100.048 32.8213 100.048H33.1208C33.2569 100.048 33.3022 100.003 33.3022 99.8667V93.7872C33.3022 93.6511 33.2569 93.6057 33.1208 93.6057H32.8213C32.6852 93.6057 32.6399 93.6511 32.6399 93.7872V99.8667ZM29.4368 96.6364C30.317 96.6364 30.8614 97.1626 30.8614 98.0337C30.8614 98.9048 30.317 99.4311 29.4368 99.4311H27.5404V96.6364H29.4368ZM39.3062 92.1086C39.3245 92.045 39.2972 91.9906 39.2246 91.9543L38.9614 91.8636C38.8798 91.8454 38.8344 91.8726 38.8072 91.9361C38.653 92.3989 38.3263 92.6348 37.8182 92.6348C37.31 92.6348 36.9833 92.3989 36.8382 91.9361C36.811 91.8726 36.7474 91.8454 36.6568 91.8726L36.4208 91.9543C36.3391 91.9815 36.3119 92.0269 36.3391 92.1086C36.5569 92.7619 37.0469 93.0885 37.8182 93.0885C38.5894 93.0885 39.0885 92.7619 39.3062 92.1086H39.3062ZM39.7509 93.6057C39.6693 93.6057 39.6057 93.6329 39.5604 93.6965L36.9471 97.4984C36.5206 98.1245 36.1849 98.6962 35.9217 99.2043H35.8945C35.9671 98.5781 36.0034 97.9249 36.0034 97.2534V93.7872C36.0034 93.6511 35.9671 93.6057 35.8309 93.6057H35.5316C35.3955 93.6057 35.35 93.6511 35.35 93.7872V99.8667C35.35 100.003 35.3955 100.048 35.5316 100.048H35.8309C35.9126 100.048 35.9762 100.012 36.0215 99.9483L38.6983 96.0557C39.1248 95.4023 39.4515 94.867 39.6693 94.4496H39.6874C39.6057 95.0939 39.5694 95.7109 39.5694 96.3006V99.8667C39.5694 100.003 39.6148 100.048 39.7509 100.048H40.0503C40.1864 100.048 40.2318 100.003 40.2318 99.8667V93.7872C40.2318 93.6511 40.1864 93.6057 40.0503 93.6057H39.7509ZM45.4736 93.6057C45.3375 93.6057 45.2921 93.6511 45.2921 93.7872V95.6292C45.2921 97.0356 45.1832 98.0156 44.9746 98.5418C44.7568 99.0682 44.6025 99.2587 44.3484 99.4311H44.0308C43.8947 99.4311 43.8494 99.4764 43.8494 99.6125V101.255C43.8494 101.391 43.8947 101.436 44.0308 101.436H44.3212C44.4392 101.436 44.4936 101.373 44.4936 101.255V100.048H49.3481V101.255C49.3481 101.391 49.3844 101.436 49.5205 101.436H49.8109C49.9469 101.436 49.9924 101.391 49.9924 101.255V99.6125C49.9924 99.4764 49.9469 99.4311 49.8109 99.4311H49.2392V93.7872C49.2392 93.6511 49.1939 93.6057 49.0578 93.6057H45.4736H45.4736ZM48.5768 94.2227V99.4311H45.1469C45.3828 99.168 45.5734 98.7506 45.7186 98.197C45.8547 97.6436 45.9273 96.7906 45.9273 95.6292V94.2227H48.5769H48.5768ZM55.9147 93.6057C55.833 93.6057 55.7695 93.6329 55.7241 93.6965L53.1109 97.4984C52.6844 98.1245 52.3486 98.6962 52.0855 99.2043H52.0583C52.1308 98.5781 52.1672 97.9249 52.1672 97.2534V93.7872C52.1672 93.6511 52.1308 93.6057 51.9947 93.6057H51.6954C51.5593 93.6057 51.5138 93.6511 51.5138 93.7872V99.8667C51.5138 100.003 51.5592 100.048 51.6954 100.048H51.9947C52.0764 100.048 52.1399 100.012 52.1853 99.9483L54.8621 96.0557C55.2885 95.4023 55.6152 94.867 55.833 94.4496H55.8511C55.7695 95.0939 55.7331 95.7109 55.7331 96.3006V99.8667C55.7331 100.003 55.7786 100.048 55.9147 100.048H56.214C56.3502 100.048 56.3956 100.003 56.3956 99.8667V93.7872C56.3956 93.6511 56.3502 93.6057 56.214 93.6057H55.9147ZM61.0839 93.7237C61.0475 93.6239 60.9659 93.5785 60.8479 93.5785H60.5757C60.4577 93.5785 60.3852 93.6329 60.3488 93.7328L57.9171 99.8757C57.8717 99.9937 57.908 100.048 58.0351 100.048H58.2801C58.4977 100.048 58.5613 100.021 58.5976 99.8848L59.2781 98.1608H62.1183L62.7987 99.8848C62.826 99.9937 62.9349 100.048 63.1254 100.048H63.3885C63.5247 100.048 63.561 99.9937 63.5156 99.8757L61.0839 93.7237H61.0839ZM61.9368 97.6163H59.4687L60.5666 94.8307C60.6392 94.6038 60.6755 94.3952 60.6755 94.2046H60.7209C60.7209 94.377 60.7662 94.5857 60.8479 94.8307L61.9368 97.6163ZM65.0734 93.6057C64.9373 93.6057 64.8919 93.6511 64.8919 93.7872V99.8667C64.8919 100.003 64.9373 100.048 65.0734 100.048H65.3728C65.5089 100.048 65.5452 100.003 65.5452 99.8667V94.2227H68.9479V99.8667C68.9479 99.9846 69.0023 100.048 69.1203 100.048H69.4288C69.5468 100.048 69.6012 99.9846 69.6012 99.8667V93.7872C69.6012 93.6692 69.5468 93.6057 69.4288 93.6057H65.0734H65.0734ZM74.2895 93.7237C74.2531 93.6239 74.1715 93.5785 74.0535 93.5785H73.7813C73.6633 93.5785 73.5908 93.6329 73.5545 93.7328L71.1227 99.8757C71.0773 99.9937 71.1137 100.048 71.2407 100.048H71.4857C71.7034 100.048 71.7669 100.021 71.8033 99.8848L72.4837 98.1608H75.3239L76.0044 99.8848C76.0316 99.9937 76.1405 100.048 76.331 100.048H76.5942C76.7303 100.048 76.7666 99.9937 76.7212 99.8757L74.2895 93.7237H74.2895ZM75.1424 97.6163H72.6743L73.7722 94.8307C73.8448 94.6038 73.8811 94.3952 73.8811 94.2046H73.9265C73.9265 94.377 73.9718 94.5857 74.0535 94.8307L75.1424 97.6163ZM82.3259 95.2844C82.3259 94.132 81.6 93.4787 80.2208 93.4787C78.7963 93.4787 78.0431 93.9868 77.7165 95.0303C77.6711 95.1392 77.7074 95.2118 77.8254 95.2572L78.1066 95.357C78.2246 95.3842 78.2972 95.3479 78.3426 95.2481C78.5966 94.4405 79.0957 94.0866 80.1846 94.0866C81.1554 94.0866 81.6636 94.5313 81.6636 95.3388C81.6636 95.9921 81.3006 96.4549 80.5838 96.4549H79.0867C78.9686 96.4549 78.9142 96.5184 78.9142 96.6364V96.8814C78.9142 96.9993 78.9686 97.0537 79.0867 97.0537H80.6564C81.4186 97.0537 81.836 97.5257 81.836 98.2606C81.836 99.0954 81.3097 99.5672 80.2208 99.5672C79.0684 99.5672 78.5422 99.1861 78.2882 98.3786C78.2427 98.2606 78.1611 98.2153 78.0522 98.2606L77.7709 98.3604C77.6348 98.4058 77.6167 98.4603 77.662 98.5963C77.9887 99.6398 78.7691 100.175 80.2208 100.175C81.7543 100.175 82.5256 99.4855 82.5256 98.2878C82.5256 97.4712 82.1808 96.9449 81.5002 96.709C82.0537 96.4822 82.3259 96.0012 82.3259 95.2844H82.3259ZM84.0653 97.8977C84.0653 99.3222 84.9544 100.175 86.5605 100.175C88.1575 100.175 89.0467 99.3222 89.0467 97.8977V95.7562C89.0467 94.3316 88.1575 93.4787 86.5605 93.4787C84.9544 93.4787 84.0653 94.3316 84.0653 95.7562V97.8977ZM88.3934 97.8977C88.3934 98.9593 87.7492 99.5672 86.5605 99.5672C85.3719 99.5672 84.7185 98.9593 84.7185 97.8977V95.7562C84.7185 94.6946 85.3719 94.0866 86.5605 94.0866C87.7492 94.0866 88.3934 94.6946 88.3934 95.7562V97.8977ZM95.196 93.6057C95.0598 93.6057 95.0144 93.6511 95.0144 93.7872V96.4731H91.5573V93.7872C91.5573 93.6511 91.521 93.6057 91.3849 93.6057H91.0855C90.9494 93.6057 90.904 93.6511 90.904 93.7872V99.8667C90.904 100.003 90.9494 100.048 91.0855 100.048H91.3849C91.521 100.048 91.5573 100.003 91.5573 99.8667V97.0901H95.0144V99.8667C95.0144 100.003 95.0598 100.048 95.196 100.048H95.4953C95.6133 100.048 95.6678 99.9846 95.6678 99.8667V93.7872C95.6678 93.6692 95.6133 93.6057 95.4953 93.6057H95.196ZM4.55909 104.558C4.47742 104.558 4.41386 104.585 4.36852 104.648L1.75528 108.45C1.32881 109.076 0.99302 109.648 0.729893 110.156H0.702666C0.775226 109.53 0.811563 108.877 0.811563 108.205V104.739C0.811563 104.603 0.775226 104.558 0.639113 104.558H0.339763C0.203649 104.558 0.158203 104.603 0.158203 104.739V110.819C0.158203 110.955 0.203639 111 0.339763 111H0.639113C0.720783 111 0.784336 110.964 0.82968 110.9L3.50648 107.008C3.93294 106.354 4.25962 105.819 4.47742 105.402H4.49553C4.41386 106.046 4.37753 106.663 4.37753 107.253V110.819C4.37753 110.955 4.42296 111 4.55909 111H4.85844C4.99455 111 5.04 110.955 5.04 110.819V104.739C5.04 104.603 4.99456 104.558 4.85844 104.558H4.55909ZM11.3797 104.558C11.2436 104.558 11.1981 104.603 11.1981 104.739V107.425H7.74106V104.739C7.74106 104.603 7.70472 104.558 7.56861 104.558H7.26926C7.13315 104.558 7.0877 104.603 7.0877 104.739V110.819C7.0877 110.955 7.13314 111 7.26926 111H7.56861C7.70472 111 7.74106 110.955 7.74106 110.819V108.042H11.1981V110.819C11.1981 110.955 11.2436 111 11.3797 111H11.679C11.797 111 11.8515 110.937 11.8515 110.819V104.739C11.8515 104.621 11.797 104.558 11.679 104.558H11.3797ZM20.9223 104.558C20.7045 104.558 20.6411 104.576 20.5594 104.712L18.7538 107.452C18.6811 107.443 18.5632 107.434 18.3907 107.434H17.8009V104.739C17.8009 104.603 17.7556 104.558 17.6195 104.558H17.32C17.1839 104.558 17.1386 104.603 17.1386 104.739V107.434H16.5579C16.3854 107.434 16.2675 107.443 16.1858 107.452L14.3801 104.712C14.2985 104.576 14.235 104.558 14.0172 104.558H13.6905C13.5544 104.558 13.5181 104.612 13.5998 104.73L15.5507 107.643C15.1877 107.788 14.8882 108.097 14.6433 108.577L13.4999 110.819C13.4183 110.937 13.4546 111 13.5907 111H13.8902C14.0807 111 14.1986 110.946 14.2441 110.837L15.2512 108.822C15.5507 108.242 15.8592 108.033 16.5579 108.033H17.1386V110.819C17.1386 110.955 17.1839 111 17.32 111H17.6195C17.7556 111 17.8009 110.955 17.8009 110.819V108.033H18.3907C19.0894 108.033 19.3979 108.242 19.6884 108.822L20.6955 110.837C20.7409 110.946 20.8589 111 21.0494 111H21.3488C21.4849 111 21.5212 110.937 21.4396 110.819L20.2963 108.577C20.0513 108.097 19.7518 107.788 19.3889 107.643L21.3398 104.73C21.4123 104.648 21.376 104.558 21.2581 104.558H20.9223ZM23.0337 104.558C22.8976 104.558 22.8521 104.603 22.8521 104.739V110.819C22.8521 110.955 22.8976 111 23.0337 111H26.8265C26.9444 111 26.9989 110.937 26.9989 110.819V110.565C26.9989 110.447 26.9444 110.383 26.8265 110.383H23.5055V108.042H26.3002C26.4182 108.042 26.4726 107.979 26.4726 107.861V107.607C26.4726 107.489 26.4182 107.425 26.3002 107.425H23.5055V105.175H26.7085C26.8265 105.175 26.881 105.111 26.881 104.993V104.739C26.881 104.621 26.8265 104.558 26.7085 104.558H23.0337H23.0337ZM32.9757 104.558C32.8395 104.558 32.7941 104.603 32.7941 104.739V107.425H29.337V104.739C29.337 104.603 29.3007 104.558 29.1646 104.558H28.8652C28.7291 104.558 28.6837 104.603 28.6837 104.739V110.819C28.6837 110.955 28.7291 111 28.8652 111H29.1646C29.3007 111 29.337 110.955 29.337 110.819V108.042H32.7941V110.819C32.7941 110.955 32.8395 111 32.9757 111H33.275C33.393 111 33.4475 110.937 33.4475 110.819V104.739C33.4475 104.621 33.393 104.558 33.275 104.558H32.9757ZM35.6767 104.558C35.5406 104.558 35.4951 104.603 35.4951 104.739V110.819C35.4951 110.955 35.5406 111 35.6767 111H39.4696C39.5875 111 39.6419 110.937 39.6419 110.819V110.565C39.6419 110.447 39.5875 110.383 39.4696 110.383H36.1485V108.042H38.9432C39.0612 108.042 39.1157 107.979 39.1157 107.861V107.607C39.1157 107.489 39.0612 107.425 38.9432 107.425H36.1485V105.175H39.3516C39.4696 105.175 39.524 105.111 39.524 104.993V104.739C39.524 104.621 39.4696 104.558 39.3516 104.558H35.6767H35.6767ZM41.5083 104.558C41.3721 104.558 41.3267 104.603 41.3267 104.739V110.819C41.3267 110.955 41.3721 111 41.5083 111H41.8076C41.9437 111 41.9801 110.955 41.9801 110.819V108.577H43.9309C45.2012 108.577 45.9816 107.833 45.9816 106.572C45.9816 105.311 45.2012 104.558 43.9309 104.558H41.5083ZM41.9801 107.97V105.175H43.8765C44.7566 105.175 45.3011 105.701 45.3011 106.572C45.3011 107.443 44.7566 107.97 43.8765 107.97H41.9801V107.97ZM51.8949 104.558C51.7588 104.558 51.7134 104.603 51.7134 104.739V107.425H48.2563V104.739C48.2563 104.603 48.2199 104.558 48.0838 104.558H47.7845C47.6484 104.558 47.6029 104.603 47.6029 104.739V110.819C47.6029 110.955 47.6484 111 47.7845 111H48.0838C48.2199 111 48.2563 110.955 48.2563 110.819V108.042H51.7134V110.819C51.7134 110.955 51.7588 111 51.8949 111H52.1943C52.3123 111 52.3667 110.937 52.3667 110.819V104.739C52.3667 104.621 52.3123 104.558 52.1943 104.558H51.8949ZM57.0186 111C58.2889 111 59.0693 110.247 59.0693 108.986C59.0693 107.725 58.2889 106.98 57.0186 106.98H55.0678V104.739C55.0678 104.603 55.0314 104.558 54.8953 104.558H54.596C54.4599 104.558 54.4144 104.603 54.4144 104.739V110.819C54.4144 110.955 54.4598 111 54.596 111H57.0186ZM60.1673 110.819C60.1673 110.955 60.2126 111 60.3487 111H60.6482C60.7843 111 60.8296 110.955 60.8296 110.819V104.739C60.8296 104.603 60.7843 104.558 60.6482 104.558H60.3487C60.2126 104.558 60.1673 104.603 60.1673 104.739V110.819ZM56.9642 107.588C57.8444 107.588 58.3888 108.115 58.3888 108.986C58.3888 109.857 57.8444 110.383 56.9642 110.383H55.0678V107.588H56.9642ZM65.4 107.725L67.5595 104.73C67.6231 104.648 67.5868 104.558 67.4688 104.558H67.1059C66.9153 104.558 66.8608 104.576 66.7792 104.712L64.9916 107.207L63.2132 104.712C63.1134 104.576 63.059 104.558 62.8684 104.558H62.5054C62.3875 104.558 62.3512 104.648 62.4147 104.73L64.5652 107.725L62.3512 110.81C62.2786 110.909 62.2967 111 62.4328 111H62.7776C62.9863 111 63.0408 110.982 63.1224 110.837L64.9644 108.233L66.8336 110.837C66.9063 110.982 66.9606 111 67.1784 111H67.5414C67.6866 111 67.7048 110.909 67.6321 110.81L65.4 107.725H65.4ZM71.4312 104.558C71.2951 104.558 71.2497 104.603 71.2497 104.739V110.819C71.2497 110.955 71.2951 111 71.4312 111H71.7306C71.8667 111 71.903 110.955 71.903 110.819V108.577H73.8539C75.1242 108.577 75.9046 107.833 75.9046 106.572C75.9046 105.311 75.1242 104.558 73.8539 104.558H71.4312ZM71.903 107.97V105.175H73.7995C74.6796 105.175 75.2241 105.701 75.2241 106.572C75.2241 107.443 74.6796 107.97 73.7995 107.97H71.903V107.97ZM77.7074 104.558C77.5713 104.558 77.5259 104.603 77.5259 104.739V110.819C77.5259 110.955 77.5713 111 77.7074 111H81.5003C81.6182 111 81.6727 110.937 81.6727 110.819V110.565C81.6727 110.447 81.6182 110.383 81.5003 110.383H78.1792V108.042H80.9739C81.092 108.042 81.1464 107.979 81.1464 107.861V107.607C81.1464 107.489 81.092 107.425 80.9739 107.425H78.1792V105.175H81.3823C81.5003 105.175 81.5547 105.111 81.5547 104.993V104.739C81.5547 104.621 81.5003 104.558 81.3823 104.558H77.7074H77.7074ZM89.7363 104.558C89.6003 104.558 89.5549 104.603 89.5549 104.739V110.383H87.1141V104.739C87.1141 104.603 87.0686 104.558 86.9326 104.558H86.6332C86.497 104.558 86.4517 104.603 86.4517 104.739V110.383H84.0108V104.739C84.0108 104.603 83.9745 104.558 83.8384 104.558H83.539C83.4029 104.558 83.3574 104.603 83.3574 104.739V110.819C83.3574 110.955 83.4029 111 83.539 111H90.0358C90.1719 111 90.2172 110.955 90.2172 110.819V104.739C90.2172 104.603 90.1719 104.558 90.0358 104.558H89.7363H89.7363ZM92.4466 104.558C92.3105 104.558 92.265 104.603 92.265 104.739V110.819C92.265 110.955 92.3105 111 92.4466 111H96.2394C96.3573 111 96.4118 110.937 96.4118 110.819V110.565C96.4118 110.447 96.3573 110.383 96.2394 110.383H92.9184V108.042H95.7131C95.8311 108.042 95.8855 107.979 95.8855 107.861V107.607C95.8855 107.489 95.8311 107.425 95.7131 107.425H92.9184V105.175H96.1214C96.2394 105.175 96.2939 105.111 96.2939 104.993V104.739C96.2939 104.621 96.2394 104.558 96.1214 104.558H92.4466H92.4466ZM102.389 104.558C102.252 104.558 102.207 104.603 102.207 104.739V107.425H98.7499V104.739C98.7499 104.603 98.7136 104.558 98.5775 104.558H98.2781C98.142 104.558 98.0966 104.603 98.0966 104.739V110.819C98.0966 110.955 98.142 111 98.2781 111H98.5775C98.7136 111 98.7499 110.955 98.7499 110.819V108.042H102.207V110.819C102.207 110.955 102.252 111 102.389 111H102.688C102.806 111 102.86 110.937 102.86 110.819V104.739C102.86 104.621 102.806 104.558 102.688 104.558H102.389ZM109.309 104.558C109.227 104.558 109.164 104.585 109.118 104.648L106.505 108.45C106.079 109.076 105.743 109.648 105.48 110.156H105.453C105.525 109.53 105.561 108.877 105.561 108.205V104.739C105.561 104.603 105.525 104.558 105.389 104.558H105.09C104.954 104.558 104.908 104.603 104.908 104.739V110.819C104.908 110.955 104.954 111 105.09 111H105.389C105.471 111 105.534 110.964 105.58 110.9L108.256 107.008C108.683 106.354 109.009 105.819 109.227 105.402H109.245C109.164 106.046 109.127 106.663 109.127 107.253V110.819C109.127 110.955 109.173 111 109.309 111H109.608C109.744 111 109.79 110.955 109.79 110.819V104.739C109.79 104.603 109.744 104.558 109.608 104.558H109.309ZM115.794 103.061C115.812 102.997 115.785 102.943 115.712 102.906L115.449 102.816C115.367 102.797 115.322 102.825 115.295 102.888C115.141 103.351 114.814 103.587 114.306 103.587C113.798 103.587 113.471 103.351 113.326 102.888C113.299 102.825 113.235 102.797 113.144 102.825L112.908 102.906C112.827 102.934 112.799 102.979 112.827 103.061C113.044 103.714 113.534 104.041 114.306 104.041C115.077 104.041 115.576 103.714 115.794 103.061H115.794ZM116.238 104.558C116.157 104.558 116.093 104.585 116.048 104.648L113.435 108.45C113.008 109.076 112.672 109.648 112.409 110.156H112.382C112.455 109.53 112.491 108.877 112.491 108.205V104.739C112.491 104.603 112.455 104.558 112.318 104.558H112.019C111.883 104.558 111.838 104.603 111.838 104.739V110.819C111.838 110.955 111.883 111 112.019 111H112.318C112.4 111 112.464 110.964 112.509 110.9L115.186 107.008C115.612 106.354 115.939 105.819 116.157 105.402H116.175C116.093 106.046 116.057 106.663 116.057 107.253V110.819C116.057 110.955 116.102 111 116.238 111H116.538C116.674 111 116.719 110.955 116.719 110.819V104.739C116.719 104.603 116.674 104.558 116.538 104.558H116.238Z" fill="white"/>
<path d="M0 87.5553H116.629V88.0384H0V87.5553Z" fill="white"/>
<path fill-rule="evenodd" clip-rule="evenodd" d="M110.21 27.4941L105.357 35.957C104.337 37.7461 104.259 40.0211 105.357 41.9369C107.008 44.8167 110.682 45.8126 113.561 44.1613C116.441 42.5101 117.437 38.8369 115.786 35.9569L110.933 27.4941C110.773 27.2145 110.37 27.2145 110.21 27.4941Z" fill="#F58634"/>
<path d="M15.8213 50.6904L15.8213 58.041C15.8213 58.2017 16.0375 58.3319 16.3043 58.3319L18.9333 58.3319C19.2 58.3319 19.4162 58.2017 19.4162 58.041L19.4162 50.6904C19.4162 50.5298 19.2 50.3995 18.9333 50.3995L16.3043 50.3995C16.0375 50.3995 15.8213 50.5298 15.8213 50.6904Z" fill="#394690"/>
<path d="M2.12036 11.6872C2.12036 11.2901 2.2578 10.9541 2.5327 10.679C2.80749 10.4041 3.14369 10.2667 3.54079 10.2667H17.3794C19.0901 10.2667 20.6635 10.5415 22.0994 11.0915C23.5046 11.7026 24.7113 12.4968 25.7192 13.4742C26.2388 13.9938 26.6969 14.5587 27.094 15.1698C27.4911 15.7809 27.8273 16.4375 28.1022 17.1402C28.6518 18.5761 28.9269 20.134 28.9269 21.8141C28.9269 24.4107 28.3007 26.6257 27.0481 28.4586C26.0706 29.9249 24.8028 31.0857 23.2449 31.9413C22.9087 32.1244 22.695 32.3765 22.6032 32.6972C22.5116 33.0181 22.588 33.331 22.8324 33.6365C23.9627 35.164 25.0395 36.6074 26.0628 37.967C27.0863 39.3263 28.148 40.7697 29.2477 42.2972C29.4922 42.6334 29.5607 42.9693 29.454 43.3053C29.3469 43.6413 29.0949 43.8094 28.6978 43.8094H24.0695C23.6724 43.8094 23.2602 43.7024 22.8324 43.4886C22.4047 43.2748 22.0687 43.0152 21.8243 42.7097C21.305 42.0071 20.7932 41.312 20.2893 40.6245C19.7853 39.9374 19.2735 39.2423 18.7542 38.5397L15.7297 34.2781C15.4855 33.9421 15.1493 33.6672 14.7217 33.4532C14.294 33.2395 13.8815 33.1325 13.4844 33.1325H9.95608C9.55878 33.1325 9.22278 33.2699 8.94799 33.545C8.6731 33.8199 8.53544 34.1558 8.53544 34.5532C8.53544 40.0905 8.52746 45.6274 8.52746 51.1647H24.5838C26.3484 51.1647 27.7789 52.5954 27.7789 54.36V72.0788C27.7789 73.8434 26.3484 75.2739 24.5838 75.2739H8.20794V77.6596H1.8175V72.0788C1.8175 70.3141 3.24806 68.8835 5.01267 68.8835H21.3885V57.5552H5.33219C3.56757 57.5552 2.13702 56.1246 2.13702 54.36C2.13702 40.136 2.12033 25.9119 2.12033 11.6871L2.12036 11.6872ZM0.483062 78.8793H9.70126C9.96726 78.8793 10.1843 79.0967 10.1843 79.3624V81.9912C10.1843 82.2569 9.96725 82.4742 9.70126 82.4742H0.483062C0.217066 82.4742 0 82.2569 0 81.9912V79.3624C0 79.0967 0.217076 78.8793 0.483062 78.8793ZM9.9561 27.4504H17.3794C17.9293 27.4504 18.5249 27.3282 19.1664 27.0839C19.8386 26.8394 20.4039 26.4882 20.862 26.03C21.3201 25.5716 21.7175 24.9912 22.0534 24.2885C22.359 23.647 22.5116 22.8223 22.5116 21.8141C22.5116 21.2644 22.4505 20.684 22.3283 20.0729C22.2672 19.7369 22.1757 19.4084 22.0534 19.0876C21.9312 18.7669 21.7938 18.4539 21.6409 18.1483C21.2745 17.5372 20.755 17.0179 20.083 16.5902C19.3804 16.1627 18.4793 15.9487 17.3794 15.9487H9.9561C9.5588 15.9487 9.2228 16.0862 8.94802 16.3613C8.67312 16.6361 8.53546 16.9721 8.53546 17.3694V26.03C8.53546 26.4271 8.67311 26.7631 8.94802 27.0379C9.2228 27.313 9.5588 27.4504 9.9561 27.4504Z" fill="#F58634"/>
<path d="M38.5618 17.3694V22.9139C38.5618 23.311 38.6992 23.6471 38.9741 23.922C39.2491 24.197 39.5851 24.3345 39.9822 24.3345H53.3626C53.7599 24.3345 54.0958 24.4719 54.3708 24.7469C54.6457 25.0218 54.7832 25.3578 54.7832 25.755V28.7335C54.7832 29.1306 54.6457 29.4667 54.3708 29.7416C54.0958 30.0166 53.7599 30.1541 53.3626 30.1541H39.9822C39.5851 30.1541 39.2491 30.2915 38.9741 30.5664C38.6993 30.8414 38.5618 31.1774 38.5618 31.5746V36.6151C38.5618 37.0122 38.6992 37.3483 38.9741 37.6232C39.2491 37.8982 39.5851 38.0357 39.9822 38.0357H55.4248C55.8219 38.0357 56.1579 38.1731 56.4329 38.4481C56.7078 38.723 56.8452 39.059 56.8452 39.4562V42.3889C56.8452 42.786 56.7078 43.122 56.4329 43.3969C56.1579 43.6719 55.8219 43.8094 55.4248 43.8094H33.567C33.1699 43.8094 32.8338 43.6719 32.5589 43.3969C32.2839 43.122 32.1465 42.786 32.1465 42.3889V11.6873C32.1465 11.2902 32.2839 10.9541 32.5589 10.6792C32.8338 10.4042 33.1699 10.2667 33.567 10.2667H55.4248C55.8219 10.2667 56.1579 10.4042 56.4329 10.6792C56.7078 10.9541 56.8452 11.2902 56.8452 11.6873V14.5283C56.8452 14.9254 56.7078 15.2615 56.4329 15.5364C56.1579 15.8113 55.8219 15.9489 55.4248 15.9489H39.9822C39.5851 15.9489 39.2491 16.0863 38.9741 16.3612C38.6993 16.6362 38.5618 16.9722 38.5618 17.3694V17.3694Z" fill="#F58634"/>
<path fill-rule="evenodd" clip-rule="evenodd" d="M66.8916 25.2968V42.3891C66.8916 42.7862 66.7542 43.1222 66.4793 43.3972C66.2044 43.672 65.8682 43.8095 65.4711 43.8095H61.8511C61.4845 43.8095 61.1637 43.672 60.8888 43.3972C60.614 43.1222 60.4766 42.7862 60.4766 42.3891V11.0458C60.4766 10.6487 60.6673 10.4119 61.0492 10.3356C61.4311 10.259 61.7595 10.3431 62.0344 10.5876L82.1508 29.6043C82.4564 29.8792 82.7083 29.971 82.9071 29.8792C83.1057 29.7876 83.2049 29.5432 83.2049 29.1461V11.7331C83.2049 11.6665 83.2088 11.6015 83.2165 11.5382V11.382C83.2165 10.6704 83.793 10.0939 84.5046 10.0939H94.4183C95.2336 8.7591 96.5466 7.76064 97.9947 7.244V5.64437C97.9947 5.55615 98.0036 5.46997 98.0207 5.38666H94.5627C93.8512 5.38666 93.2746 4.81005 93.2746 4.09856V2.73708C93.2746 2.02549 93.8512 1.44898 94.5627 1.44898H97.9947V1.28831C97.9947 0.576813 98.5074 0 99.2189 0H101.177C101.889 0 102.402 0.559824 102.402 1.27142V1.43199H105.833C106.545 1.43199 107.122 2.0086 107.122 2.72009V4.08167C107.122 4.79317 106.545 5.36977 105.833 5.36977H102.376C102.392 5.45308 102.402 5.53925 102.402 5.62748V7.22712C103.85 7.74375 105.162 8.75889 105.978 10.0939H108.458C111.491 10.0939 113.74 12.1389 113.74 15.1719V18.611H107.335V17.3123C107.335 16.8724 106.812 16.5147 106.372 16.5147H106.11C104.926 18.6474 102.691 19.9828 100.198 19.9828C97.7052 19.9828 95.4707 18.6474 94.2856 16.5147H89.6203V43.0305C89.6203 43.4271 89.4289 43.6646 89.0474 43.7407C88.6657 43.8169 88.3217 43.7331 88.0163 43.4887L67.9457 24.7928C67.6401 24.5483 67.3883 24.472 67.1897 24.5637C66.9908 24.6553 66.8916 24.8997 66.8916 25.2968L66.8916 25.2968ZM106.761 19.831H114.383C114.672 19.831 114.908 20.0667 114.908 20.3558V23.2122C114.908 23.5013 114.672 23.737 114.383 23.737H106.761C106.472 23.737 106.236 23.5013 106.236 23.2122V20.3558C106.236 20.0667 106.472 19.831 106.761 19.831Z" fill="#F58634"/>
<path d="M28.2606 59.526H20.91C20.7494 59.526 20.6191 59.7422 20.6191 60.009V62.638C20.6191 62.9047 20.7494 63.121 20.91 63.121H28.2606C28.4213 63.121 28.5515 62.9047 28.5515 62.638V60.009C28.5515 59.7422 28.4213 59.526 28.2606 59.526Z" fill="#F58634"/>
<path d="M10.1895 68.3963L10.1895 75.747C10.1895 75.9076 10.4057 76.0378 10.6724 76.0378L13.3014 76.0378C13.5682 76.0378 13.7844 75.9076 13.7844 75.747L13.7844 68.3963C13.7844 68.2357 13.5682 68.1055 13.3014 68.1055L10.6724 68.1055C10.4057 68.1055 10.1895 68.2357 10.1895 68.3963Z" fill="#F58634"/>
<path d="M9.00672 45.595H1.65612C1.49547 45.595 1.36523 45.8112 1.36523 46.078V48.7069C1.36523 48.9737 1.49547 49.1899 1.65612 49.1899H9.00672C9.16738 49.1899 9.29761 48.9737 9.29761 48.7069V46.078C9.29761 45.8112 9.16738 45.595 9.00672 45.595Z" fill="#F58634"/>
</svg>
